<svg width="43" height="30" viewBox="0 0 43 30" fill="none" xmlns="http://www.w3.org/2000/svg">
<g clip-path="url(#clip0_1166_149)">
<path d="M41.3211 7.14853H41.2735C41.2735 7.14853 41.202 7.14853 41.1543 7.14853H34.9351L35.0304 6.93407L36.1027 4.62272L36.2695 4.24146L37.175 2.31136C37.7707 1.04845 37.2226 0 35.9597 0H35.9121C35.9121 0 35.9121 0 35.8882 0H24.0455H23.9978C23.3783 0 22.7111 0.238285 22.0916 0.667197C21.9963 0.714853 21.9248 0.786339 21.8295 0.857824C21.3291 1.23908 20.8763 1.7633 20.6142 2.31136L19.5419 4.62272L18.5411 6.7911H18.5173L18.3505 7.14853H12.0836C11.4641 7.14853 10.7969 7.38681 10.1773 7.81573C9.55781 8.22081 9.00975 8.81652 8.69998 9.45989L7.62771 11.7712L6.62691 13.9396H6.60308L5.5308 16.251L5.26869 16.8229L4.31555 18.8721L3.31476 21.0405L2.24248 23.3519L1.31317 25.3773L0.24089 27.6886C-0.35482 28.9515 0.193234 30 1.45614 30H30.8843C32.1233 29.9047 33.553 28.9039 34.1249 27.6886L35.0542 25.6632L36.1265 23.3519L37.1273 21.1596L38.1996 18.8483L39.2719 16.5369C39.2719 16.5369 39.2957 16.4178 39.3195 16.3463L39.3672 16.2272L40.368 14.0349L41.4403 11.7236L42.5125 9.41223C43.1082 8.14932 42.5602 7.10087 41.2973 7.10087L41.3211 7.14853ZM23.1162 6.93407L24.1885 4.62272L24.3553 4.24146H31.6229L31.4561 4.62272L30.4553 6.7911H30.4315L30.2647 7.14853H23.0209L23.1162 6.93407ZM31.4561 23.3757L30.5268 25.4011L30.36 25.7824H5.76909L5.81674 25.687L6.88902 23.3757L7.88982 21.1835L8.15193 20.6354C8.15193 20.6354 8.15193 20.6116 8.17576 20.5878L8.9621 18.8959L9.39101 17.9666L10.1773 16.2986L11.202 14.1064L12.2743 11.7951L12.441 11.4138H16.3966L15.4434 13.4631C14.8477 14.726 15.3958 15.7744 16.6587 15.7744H16.7063C17.9692 15.7744 19.4943 14.726 20.09 13.4631L21.0193 11.4376L28.287 11.4138L27.3338 13.4631C26.7381 14.726 27.2862 15.7744 28.5491 15.7744H28.5967C29.8596 15.7744 31.3847 14.726 31.9804 13.4631L32.9097 11.4376L36.9605 11.4138L36.7937 11.7951L35.7929 13.9635L34.7206 16.2748L33.7913 18.3002L32.719 20.6116C32.719 20.6116 32.6952 20.7307 32.6714 20.8022L32.5522 21.0643L31.48 23.3757H31.4561Z" fill="#515151"/>
</g>
<defs>
<clipPath id="clip0_1166_149">
<rect width="42.6165" height="30" fill="white" transform="translate(0.380005)"/>
</clipPath>
</defs>
</svg>
