<svg width="23" height="23" viewBox="0 0 24 23" fill="none" xmlns="http://www.w3.org/2000/svg">
<g clip-path="url(#clip0_342_242)">
<mask id="path-1-inside-1_342_242" fill="white">
<path d="M11.0024 0.274023C10.5442 0.327929 9.84341 0.512109 9.40317 0.691796C7.7231 1.38809 6.3979 2.80312 5.84087 4.49219C5.5938 5.2334 5.55337 5.51641 5.52642 6.54512L5.50395 7.50195H3.40161H1.29927L1.06118 7.62773C0.868018 7.72656 0.796143 7.79844 0.697314 7.9916L0.571533 8.23418L0.580518 14.2133L0.593994 20.1924L0.719775 20.5518C1.03872 21.4637 1.70356 22.1734 2.57056 22.5373C3.16353 22.7889 2.79067 22.7799 11.9143 22.7664C19.8385 22.7529 20.3282 22.7484 20.5842 22.6721C21.2266 22.4789 21.8151 22.0926 22.2014 21.6074C22.5069 21.2256 22.6416 20.9875 22.7944 20.5518L22.9202 20.1924L22.9336 14.2133L22.9426 8.23418L22.8168 7.9916C22.718 7.79844 22.6461 7.72656 22.453 7.62773L22.2149 7.50195H20.1125H18.0147L17.9877 6.54512C17.9608 5.47148 17.8754 4.9998 17.579 4.22266C16.5502 1.56777 13.8504 -0.0583988 11.0024 0.274023ZM12.7993 2.19668C14.129 2.54258 15.1801 3.40957 15.7551 4.64492C16.0561 5.28281 16.119 5.61074 16.1459 6.6125L16.1684 7.50195H11.7571H7.34575L7.36821 6.6125C7.38618 5.89375 7.40864 5.66016 7.4895 5.36816C7.9522 3.67012 9.3852 2.38086 11.1057 2.11133C11.5145 2.04844 12.3995 2.09336 12.7993 2.19668ZM5.51294 10.3096C5.51294 11.0822 5.52642 11.3113 5.58481 11.4461C5.76001 11.8684 6.20474 12.0975 6.64497 11.9896C6.92798 11.9223 7.23345 11.6393 7.30532 11.3832C7.33228 11.2844 7.35474 10.7992 7.35474 10.2736V9.34375H11.7571H16.1594V10.2736C16.1594 10.7992 16.1819 11.2844 16.2088 11.3832C16.2807 11.6393 16.5862 11.9223 16.8692 11.9896C17.3094 12.0975 17.7542 11.8684 17.9293 11.4461C17.9877 11.3113 18.0012 11.0822 18.0012 10.3096V9.34375H19.551H21.1008V14.5771C21.1008 19.7027 21.1008 19.8105 21.011 20.0486C20.8897 20.3766 20.6561 20.6326 20.3461 20.7854L20.0901 20.9111H11.7571H3.42407L3.16802 20.7854C2.85806 20.6326 2.62446 20.3766 2.50317 20.0486C2.41333 19.8105 2.41333 19.7027 2.41333 14.5771V9.34375H3.96313H5.51294V10.3096Z"/>
</mask>
<path d="M11.0024 0.274023C10.5442 0.327929 9.84341 0.512109 9.40317 0.691796C7.7231 1.38809 6.3979 2.80312 5.84087 4.49219C5.5938 5.2334 5.55337 5.51641 5.52642 6.54512L5.50395 7.50195H3.40161H1.29927L1.06118 7.62773C0.868018 7.72656 0.796143 7.79844 0.697314 7.9916L0.571533 8.23418L0.580518 14.2133L0.593994 20.1924L0.719775 20.5518C1.03872 21.4637 1.70356 22.1734 2.57056 22.5373C3.16353 22.7889 2.79067 22.7799 11.9143 22.7664C19.8385 22.7529 20.3282 22.7484 20.5842 22.6721C21.2266 22.4789 21.8151 22.0926 22.2014 21.6074C22.5069 21.2256 22.6416 20.9875 22.7944 20.5518L22.9202 20.1924L22.9336 14.2133L22.9426 8.23418L22.8168 7.9916C22.718 7.79844 22.6461 7.72656 22.453 7.62773L22.2149 7.50195H20.1125H18.0147L17.9877 6.54512C17.9608 5.47148 17.8754 4.9998 17.579 4.22266C16.5502 1.56777 13.8504 -0.0583988 11.0024 0.274023ZM12.7993 2.19668C14.129 2.54258 15.1801 3.40957 15.7551 4.64492C16.0561 5.28281 16.119 5.61074 16.1459 6.6125L16.1684 7.50195H11.7571H7.34575L7.36821 6.6125C7.38618 5.89375 7.40864 5.66016 7.4895 5.36816C7.9522 3.67012 9.3852 2.38086 11.1057 2.11133C11.5145 2.04844 12.3995 2.09336 12.7993 2.19668ZM5.51294 10.3096C5.51294 11.0822 5.52642 11.3113 5.58481 11.4461C5.76001 11.8684 6.20474 12.0975 6.64497 11.9896C6.92798 11.9223 7.23345 11.6393 7.30532 11.3832C7.33228 11.2844 7.35474 10.7992 7.35474 10.2736V9.34375H11.7571H16.1594V10.2736C16.1594 10.7992 16.1819 11.2844 16.2088 11.3832C16.2807 11.6393 16.5862 11.9223 16.8692 11.9896C17.3094 12.0975 17.7542 11.8684 17.9293 11.4461C17.9877 11.3113 18.0012 11.0822 18.0012 10.3096V9.34375H19.551H21.1008V14.5771C21.1008 19.7027 21.1008 19.8105 21.011 20.0486C20.8897 20.3766 20.6561 20.6326 20.3461 20.7854L20.0901 20.9111H11.7571H3.42407L3.16802 20.7854C2.85806 20.6326 2.62446 20.3766 2.50317 20.0486C2.41333 19.8105 2.41333 19.7027 2.41333 14.5771V9.34375H3.96313H5.51294V10.3096Z" stroke="#727272" stroke-width="4" mask="url(#path-1-inside-1_342_242)"/>
</g>
<defs>
<clipPath id="clip0_342_242">
<rect width="23" height="23" fill="white" transform="translate(0.25708)"/>
</clipPath>
</defs>
</svg>
