<svg width="23" height="20" viewBox="0 0 23 20" fill="none" xmlns="http://www.w3.org/2000/svg">
<g clip-path="url(#clip0_126_240)">
<mask id="path-1-inside-1_126_240" fill="white">
<path fill-rule="evenodd" clip-rule="evenodd" d="M6.28028 4.60842H11.3645L12.4497 2.28455C13.0395 1.02628 14.5495 0 15.8078 0H15.8432C17.1014 0 17.648 1.02628 17.0582 2.28455L15.9729 4.60842H21.0571C22.3154 4.60842 22.862 5.6347 22.2721 6.8969L22.2564 6.92834C21.6666 8.18665 20.1567 9.21684 18.8984 9.21684H15.1275L15.1118 16.6917C15.1118 17.836 13.9754 19.2004 12.5834 19.7352L12.5441 19.747C11.1561 20.2817 10.0197 19.7824 10.0237 18.6421L10.0354 12.3625L4.16877 18.6421C3.10318 19.7824 1.50281 20.2817 0.610225 19.747L0.586636 19.7352C-0.305951 19.2004 -0.164396 17.836 0.905132 16.6917L7.89245 9.21684H4.12159C2.86332 9.21684 2.31675 8.18665 2.90657 6.92834L2.9223 6.8969C3.51211 5.6347 5.02204 4.60842 6.28028 4.60842Z"/>
</mask>
<path fill-rule="evenodd" clip-rule="evenodd" d="M6.28028 4.60842H11.3645L12.4497 2.28455C13.0395 1.02628 14.5495 0 15.8078 0H15.8432C17.1014 0 17.648 1.02628 17.0582 2.28455L15.9729 4.60842H21.0571C22.3154 4.60842 22.862 5.6347 22.2721 6.8969L22.2564 6.92834C21.6666 8.18665 20.1567 9.21684 18.8984 9.21684H15.1275L15.1118 16.6917C15.1118 17.836 13.9754 19.2004 12.5834 19.7352L12.5441 19.747C11.1561 20.2817 10.0197 19.7824 10.0237 18.6421L10.0354 12.3625L4.16877 18.6421C3.10318 19.7824 1.50281 20.2817 0.610225 19.747L0.586636 19.7352C-0.305951 19.2004 -0.164396 17.836 0.905132 16.6917L7.89245 9.21684H4.12159C2.86332 9.21684 2.31675 8.18665 2.90657 6.92834L2.9223 6.8969C3.51211 5.6347 5.02204 4.60842 6.28028 4.60842Z" fill="#027AC7" stroke="#727272" mask="url(#path-1-inside-1_126_240)"/>
</g>
<defs>
<clipPath id="clip0_126_240">
<rect width="22.5352" height="20" fill="white"/>
</clipPath>
</defs>
</svg>
