<svg width="23" height="20" viewBox="0 0 23 20" fill="none" xmlns="http://www.w3.org/2000/svg">
<g clip-path="url(#clip0_126_281)">
<path d="M11.3645 4.85842H11.5237L11.591 4.7142L12.6761 2.39065C12.6761 2.39059 12.6762 2.39053 12.6762 2.39047C12.9488 1.80906 13.4404 1.27048 14.0187 0.877142C14.5984 0.482863 15.2422 0.25 15.8078 0.25H15.8432C16.4019 0.25 16.7556 0.47334 16.923 0.787854C17.0949 1.11102 17.1051 1.59554 16.8318 2.17844L16.8317 2.17876L15.7464 4.50263L15.5802 4.85842H15.9729H21.0571C21.6158 4.85842 21.9695 5.08173 22.1369 5.39666C22.3086 5.71981 22.319 6.20436 22.047 6.7881L22.0328 6.81653L22.0327 6.8165L22.03 6.82223C21.7574 7.40385 21.2657 7.94354 20.6873 8.33789C20.1075 8.73317 19.4638 8.96684 18.8984 8.96684H15.1275H14.878L14.8775 9.21632L14.8618 16.6912V16.6917C14.8618 17.1858 14.613 17.7582 14.1774 18.2822C13.7464 18.8005 13.1521 19.247 12.5023 19.4985L12.4721 19.5076L12.463 19.5103L12.4542 19.5137C11.8009 19.7654 11.2413 19.76 10.8623 19.5937C10.4986 19.4342 10.272 19.116 10.2737 18.6429L10.2737 18.6426L10.2854 12.3629L10.2866 11.7274L9.85276 12.1918L3.98611 18.4714C3.48191 19.0109 2.8524 19.3967 2.25038 19.584C1.64188 19.7732 1.1004 19.7492 0.738709 19.5325L0.730677 19.5277L0.722308 19.5235L0.707535 19.5161C0.367835 19.3086 0.209318 18.9415 0.258741 18.468C0.309258 17.9839 0.580313 17.4054 1.08776 16.8624C1.08777 16.8624 1.08777 16.8624 1.08777 16.8624L8.07508 9.38756L8.46836 8.96684H7.89245H4.12159C3.56329 8.96684 3.2094 8.74286 3.04187 8.42725C2.86999 8.10343 2.8598 7.6188 3.13161 7.03728L3.14587 7.00877L3.14595 7.00881L3.14879 7.00274C3.42141 6.41933 3.91303 5.87977 4.49134 5.48598C5.07099 5.09127 5.71474 4.85842 6.28028 4.85842H11.3645Z" fill="#4D342F" stroke="#727272" stroke-width="0.5"/>
</g>
<defs>
<clipPath id="clip0_126_281">
<rect width="22.5352" height="20" fill="white"/>
</clipPath>
</defs>
</svg>
