<svg width="22" height="20" viewBox="0 0 22 20" fill="none" xmlns="http://www.w3.org/2000/svg">
<g id="cross" clip-path="url(#clip0_1095_527)">
<path id="Vector" d="M20.8683 0.226087H20.8461C20.023 -0.30784 18.5102 0.181593 17.4868 1.24945L11.9473 7.16713V1.24945C11.9696 0.181593 10.9017 -0.30784 9.58914 0.20384H9.54465C8.23208 0.71552 7.16422 2.00584 7.16422 3.09594V10.1482L0.846092 16.889C-0.155021 17.9791 -0.288502 19.2695 0.556882 19.7589H0.579128C1.40227 20.2928 2.91506 19.8034 3.93842 18.7355L9.47791 12.8179V18.7355C9.45566 19.8034 10.5235 20.2928 11.8361 19.7811H11.8806C13.1931 19.2695 14.261 17.9791 14.261 16.889V9.83677L20.5791 3.09594C21.5802 2.00584 21.7137 0.71552 20.8683 0.226087Z" fill="#515151"/>
</g>
<defs>
<clipPath id="clip0_1095_527">
<rect width="22" height="20" fill="white"/>
</clipPath>
</defs>
</svg>
