<svg width="30" height="30" viewBox="0 0 30 30" fill="none" xmlns="http://www.w3.org/2000/svg">
<g clip-path="url(#clip0_175_27)">
<path d="M3.49805 0.0822353C2.20898 0.363485 1.06055 1.27755 0.480469 2.47872C0.117188 3.23458 0 3.76192 0 4.59395C0.00585938 5.54317 0.240234 6.34005 0.75 7.1252C0.884766 7.33614 2.37891 8.88302 4.69336 11.1975L8.41406 14.9358L4.69336 18.6682C2.30859 21.0647 0.890625 22.5295 0.744141 22.7522C0.28125 23.4729 0.0117188 24.3928 0.0117188 25.2951C0.00585938 28.6174 3.14648 30.7326 6.28125 29.5197C7.24219 29.1506 7.38281 29.0276 11.3086 25.1135L14.9531 21.469L18.6035 25.1135C22.4531 28.9572 22.6113 29.0979 23.5078 29.467C23.9297 29.6428 24.5391 29.7893 25.0957 29.8479C25.8398 29.9299 27.0527 29.6486 27.7734 29.2268C28.2422 28.9514 29.0039 28.1721 29.2969 27.6799C30.1816 26.1623 30.1289 24.2463 29.1562 22.7463C29.0215 22.5354 27.5273 20.9885 25.2129 18.6682L21.4922 14.9358L25.2129 11.1975C27.5918 8.8127 29.0156 7.342 29.1621 7.11934C29.6543 6.35763 29.9062 5.50802 29.9121 4.59395C29.918 3.8088 29.7773 3.21114 29.4141 2.46114C29.1621 1.93966 29.0508 1.78145 28.6172 1.342C28.0371 0.761923 27.5156 0.427938 26.8184 0.193563C26.4375 0.0646572 26.209 0.029501 25.6113 0.00606346C24.7969 -0.0232334 24.2871 0.0587978 23.6191 0.31661C22.7168 0.674032 22.5938 0.779501 18.6562 4.70528L14.9531 8.39669L11.2734 4.72872C7.48242 0.943563 7.26562 0.750204 6.44531 0.386923C5.84766 0.117392 5.20898 -0.00565529 4.5 0.000204086C4.14258 0.000204086 3.69141 0.0353603 3.49805 0.0822353Z" fill="#727272"/>
</g>
<defs>
<clipPath id="clip0_175_27">
<rect width="30" height="30" fill="white"/>
</clipPath>
</defs>
</svg>
