<svg width="54" height="45" viewBox="0 0 54 45" fill="none" xmlns="http://www.w3.org/2000/svg">
<g clip-path="url(#clip0_1177_153)">
<path d="M46.1448 4.94011C45.4965 2.29871 43.5514 0.617822 40.6459 0.137567C37.9325 -0.318674 34.5707 0.377695 31.7132 1.96254C31.6651 1.98655 31.6171 2.01056 31.5691 2.03457C31.5691 2.01056 31.5211 1.98655 31.497 1.96254C30.1043 0.377695 27.4149 -0.318674 24.2452 0.137567C20.9314 0.617822 17.4016 2.32273 14.3039 4.94011C7.60438 10.6071 9.06916 17.1626 11.0142 20.1402C11.0142 20.1642 11.0622 20.1642 11.0622 20.1642C11.0622 20.1882 11.0862 20.2122 11.0622 20.2362L12.3589 22.1092L13.5355 23.8862L14.7842 25.8312L15.9128 27.4881L17.1855 29.3611C17.5216 29.8653 18.0259 30.0574 18.5302 29.9854C19.0104 30.0574 19.6588 29.8413 20.4512 29.3611L23.4768 27.4881L26.1662 25.8312L29.1918 23.9342L32.0253 22.1332L35.0509 20.2602C35.0509 20.2602 35.0989 20.2122 35.147 20.1882C35.171 20.1882 35.195 20.1882 35.243 20.1642C39.9255 17.1866 47.5375 10.6311 46.1208 4.96413L46.1448 4.94011ZM33.7302 16.5863L33.6822 16.6343L33.4181 16.8024L32.9378 17.0906L29.8642 18.9876L26.9826 20.7885L23.9811 22.6855L21.3397 24.3184C21.3397 24.3184 21.1476 24.4144 21.0995 24.5105C21.0995 24.4384 21.0515 24.3664 21.0275 24.3184L19.9229 22.6855L18.6742 20.7885L17.4736 18.9876L16.2249 17.0906L16.0088 16.8024L15.8888 16.6343C15.8888 16.6343 15.8888 16.6103 15.8648 16.5863C15.8407 16.5383 12.575 11.3515 16.9213 7.70158C19.2986 5.68451 21.4597 5.01215 22.8284 4.82005C24.3893 4.57992 25.83 4.84406 26.6225 5.51642C26.7665 5.56444 26.8626 5.66049 26.9346 5.75655C27.8231 6.74107 28.1833 8.01374 28.3994 8.95024C29.456 8.01374 31.0408 6.74107 32.8418 5.75655C33.0339 5.66049 33.2019 5.56444 33.394 5.51642C34.8108 4.84406 36.4677 4.57992 37.8124 4.82005C39.013 5.01215 40.5498 5.68451 41.0541 7.70158C41.9666 11.3515 33.8743 16.5383 33.8023 16.5863H33.7302Z" fill="#515151"/>
</g>
<path d="M5.54444 40.855L5.68044 40.566C6.17344 40.5773 6.58144 40.6567 6.90444 40.804C7.22744 40.9457 7.46544 41.1412 7.61844 41.3905C7.77144 41.6342 7.84794 41.9147 7.84794 42.232C7.84794 42.572 7.76577 42.8752 7.60144 43.1415C7.44277 43.4078 7.20761 43.6175 6.89594 43.7705C6.58427 43.9235 6.19328 44 5.72294 44H1.25194L1.74494 40.7275L1.25194 37.625H5.56144C6.15077 37.625 6.60694 37.7638 6.92994 38.0415C7.25861 38.3135 7.42294 38.6903 7.42294 39.172C7.42294 39.4327 7.36061 39.6848 7.23594 39.9285C7.11694 40.1722 6.91861 40.379 6.64094 40.549C6.36894 40.7133 6.00344 40.8153 5.54444 40.855ZM2.67994 43.6345L2.12744 42.9375H5.42544C5.73144 42.9375 5.96661 42.8667 6.13094 42.725C6.30094 42.5777 6.38594 42.3737 6.38594 42.113C6.38594 41.8467 6.28961 41.637 6.09694 41.484C5.90427 41.3253 5.62094 41.246 5.24694 41.246H2.56094V40.209H5.07694C5.33194 40.209 5.54161 40.1382 5.70594 39.9965C5.87594 39.8492 5.96094 39.6452 5.96094 39.3845C5.96094 39.1862 5.89011 39.0218 5.74844 38.8915C5.60677 38.7555 5.40277 38.6875 5.13644 38.6875H2.12744L2.67994 37.9905L3.13044 40.7275L2.67994 43.6345ZM9.66043 37.625H11.1054V44H9.66043V37.625ZM22.6165 42.725L21.962 43.3795V37.625H23.407V44H13.258V37.625H14.703V43.3795L14.0485 42.725H18.12L17.61 43.3795V37.625H19.055V43.3795L18.5025 42.725H22.6165ZM26.6258 37.625H32.6268V44H31.1903V38.2455L31.8363 38.9H27.4248L28.0368 38.424C28.0821 38.8377 28.1133 39.2343 28.1303 39.614C28.1529 39.9937 28.1643 40.3507 28.1643 40.685C28.1643 41.4897 28.0934 42.1442 27.9518 42.6485C27.8101 43.1528 27.5891 43.524 27.2888 43.762C26.9884 44 26.5946 44.119 26.1073 44.119C25.9146 44.119 25.7219 44.0963 25.5293 44.051C25.3366 44.0113 25.1609 43.9518 25.0023 43.8725V42.6655C25.2459 42.7618 25.4726 42.81 25.6823 42.81C26.0789 42.81 26.3651 42.6287 26.5408 42.266C26.7164 41.8977 26.8043 41.2998 26.8043 40.4725C26.8043 40.0985 26.7901 39.6735 26.7618 39.1975C26.7334 38.7215 26.6881 38.1973 26.6258 37.625ZM34.7886 37.625H36.2336V44H34.7886V37.625ZM45.2881 41.4075C45.2258 41.9458 45.036 42.4218 44.7186 42.8355C44.407 43.2435 43.9933 43.5608 43.4776 43.7875C42.9676 44.0142 42.384 44.1275 41.7266 44.1275C41.0013 44.1275 40.3638 43.9887 39.8141 43.711C39.2701 43.4333 38.8451 43.048 38.5391 42.555C38.2331 42.0563 38.0801 41.4755 38.0801 40.8125C38.0801 40.1495 38.2331 39.5715 38.5391 39.0785C38.8451 38.5798 39.2701 38.1917 39.8141 37.914C40.3638 37.6363 41.0013 37.4975 41.7266 37.4975C42.384 37.4975 42.9676 37.6108 43.4776 37.8375C43.9933 38.0642 44.407 38.3815 44.7186 38.7895C45.036 39.1975 45.2258 39.6735 45.2881 40.2175H43.8346C43.778 39.9172 43.6561 39.6593 43.4691 39.444C43.2821 39.223 43.0413 39.053 42.7466 38.934C42.452 38.815 42.1091 38.7555 41.7181 38.7555C41.2705 38.7555 40.8823 38.8405 40.5536 39.0105C40.2306 39.1748 39.9813 39.4128 39.8056 39.7245C39.63 40.0305 39.5421 40.3932 39.5421 40.8125C39.5421 41.2318 39.63 41.5973 39.8056 41.909C39.9813 42.215 40.2306 42.453 40.5536 42.623C40.8823 42.7873 41.2705 42.8695 41.7181 42.8695C42.1091 42.8695 42.452 42.8128 42.7466 42.6995C43.0413 42.5805 43.2821 42.4133 43.4691 42.198C43.6561 41.977 43.778 41.7135 43.8346 41.4075H45.2881ZM48.8379 38.271H50.2744V44H48.8379V38.271ZM46.2964 37.625H52.8074V38.9H46.2964V37.625Z" fill="#515151"/>
<defs>
<clipPath id="clip0_1177_153">
<rect width="36.8037" height="30" fill="white" transform="translate(9.38)"/>
</clipPath>
</defs>
</svg>
