<svg width="74" height="48" viewBox="0 0 74 48" fill="none" xmlns="http://www.w3.org/2000/svg">
<path d="M6.8792 42.56L7.0712 42.152C7.7672 42.168 8.3432 42.28 8.79921 42.488C9.25521 42.688 9.59121 42.964 9.80721 43.316C10.0232 43.66 10.1312 44.056 10.1312 44.504C10.1312 44.984 10.0152 45.412 9.7832 45.788C9.5592 46.164 9.2272 46.46 8.7872 46.676C8.34721 46.892 7.79521 47 7.13121 47H0.819205L1.5152 42.38L0.819205 38H6.9032C7.7352 38 8.3792 38.196 8.8352 38.588C9.29921 38.972 9.53121 39.504 9.53121 40.184C9.53121 40.552 9.44321 40.908 9.2672 41.252C9.09921 41.596 8.81921 41.888 8.42721 42.128C8.04321 42.36 7.52721 42.504 6.8792 42.56ZM2.8352 46.484L2.0552 45.5H6.71121C7.14321 45.5 7.47521 45.4 7.70721 45.2C7.9472 44.992 8.0672 44.704 8.0672 44.336C8.0672 43.96 7.9312 43.664 7.6592 43.448C7.38721 43.224 6.98721 43.112 6.4592 43.112H2.6672V41.648H6.2192C6.57921 41.648 6.87521 41.548 7.1072 41.348C7.34721 41.14 7.46721 40.852 7.46721 40.484C7.46721 40.204 7.36721 39.972 7.1672 39.788C6.96721 39.596 6.67921 39.5 6.30321 39.5H2.0552L2.8352 38.516L3.4712 42.38L2.8352 46.484ZM12.69 38H14.73V47H12.69V38ZM30.9809 45.2L30.0569 46.124V38H32.0969V47H17.7689V38H19.8089V46.124L18.8849 45.2H24.6329L23.9129 46.124V38H25.9529V46.124L25.1729 45.2H30.9809ZM36.6411 38H45.1131V47H43.0851V38.876L43.9971 39.8H37.7691L38.6331 39.128C38.6971 39.712 38.7411 40.272 38.7651 40.808C38.7971 41.344 38.8131 41.848 38.8131 42.32C38.8131 43.456 38.7131 44.38 38.5131 45.092C38.3131 45.804 38.0011 46.328 37.5771 46.664C37.1531 47 36.5971 47.168 35.9091 47.168C35.6371 47.168 35.3651 47.136 35.0931 47.072C34.8211 47.016 34.5731 46.932 34.3491 46.82V45.116C34.6931 45.252 35.0131 45.32 35.3091 45.32C35.8691 45.32 36.2731 45.064 36.5211 44.552C36.7691 44.032 36.8931 43.188 36.8931 42.02C36.8931 41.492 36.8731 40.892 36.8331 40.22C36.7931 39.548 36.7291 38.808 36.6411 38ZM48.165 38H50.205V47H48.165V38ZM62.9879 43.34C62.8999 44.1 62.6319 44.772 62.1839 45.356C61.7439 45.932 61.1599 46.38 60.4319 46.7C59.7119 47.02 58.8879 47.18 57.9599 47.18C56.9359 47.18 56.0359 46.984 55.2599 46.592C54.4919 46.2 53.8919 45.656 53.4599 44.96C53.0279 44.256 52.8119 43.436 52.8119 42.5C52.8119 41.564 53.0279 40.748 53.4599 40.052C53.8919 39.348 54.4919 38.8 55.2599 38.408C56.0359 38.016 56.9359 37.82 57.9599 37.82C58.8879 37.82 59.7119 37.98 60.4319 38.3C61.1599 38.62 61.7439 39.068 62.1839 39.644C62.6319 40.22 62.8999 40.892 62.9879 41.66H60.9359C60.8559 41.236 60.6839 40.872 60.4199 40.568C60.1559 40.256 59.8159 40.016 59.3999 39.848C58.9839 39.68 58.4999 39.596 57.9479 39.596C57.3159 39.596 56.7679 39.716 56.3039 39.956C55.8479 40.188 55.4959 40.524 55.2479 40.964C54.9999 41.396 54.8759 41.908 54.8759 42.5C54.8759 43.092 54.9999 43.608 55.2479 44.048C55.4959 44.48 55.8479 44.816 56.3039 45.056C56.7679 45.288 57.3159 45.404 57.9479 45.404C58.4999 45.404 58.9839 45.324 59.3999 45.164C59.8159 44.996 60.1559 44.76 60.4199 44.456C60.6839 44.144 60.8559 43.772 60.9359 43.34H62.9879ZM67.9994 38.912H70.0274V47H67.9994V38.912ZM64.4114 38H73.6034V39.8H64.4114V38Z" fill="#515151"/>
<g clip-path="url(#clip0_1768_1062)">
<path d="M55.3849 4.94011C54.7366 2.29871 52.7915 0.617822 49.886 0.137567C47.1726 -0.318674 43.8108 0.377695 40.9533 1.96254C40.9052 1.98655 40.8572 2.01056 40.8092 2.03457C40.8092 2.01056 40.7612 1.98655 40.7372 1.96254C39.3444 0.377695 36.655 -0.318674 33.4853 0.137567C30.1716 0.617822 26.6417 2.32273 23.544 4.94011C16.8445 10.6071 18.3093 17.1626 20.2543 20.1402C20.2543 20.1642 20.3023 20.1642 20.3023 20.1642C20.3023 20.1882 20.3263 20.2122 20.3023 20.2362L21.599 22.1092L22.7756 23.8862L24.0243 25.8312L25.1529 27.4881L26.4256 29.3611C26.7617 29.8653 27.266 30.0574 27.7703 29.9854C28.2505 30.0574 28.8989 29.8413 29.6913 29.3611L32.7169 27.4881L35.4063 25.8312L38.4319 23.9342L41.2654 22.1332L44.291 20.2602C44.291 20.2602 44.3391 20.2122 44.3871 20.1882C44.4111 20.1882 44.4351 20.1882 44.4831 20.1642C49.1656 17.1866 56.7777 10.6311 55.3609 4.96413L55.3849 4.94011ZM42.9703 16.5863L42.9223 16.6343L42.6582 16.8024L42.1779 17.0906L39.1043 18.9876L36.2228 20.7885L33.2212 22.6855L30.5798 24.3184C30.5798 24.3184 30.3877 24.4144 30.3396 24.5105C30.3396 24.4384 30.2916 24.3664 30.2676 24.3184L29.163 22.6855L27.9144 20.7885L26.7137 18.9876L25.4651 17.0906L25.2489 16.8024L25.1289 16.6343C25.1289 16.6343 25.1289 16.6103 25.1049 16.5863C25.0809 16.5383 21.8151 11.3515 26.1614 7.70158C28.5387 5.68451 30.6998 5.01215 32.0686 4.82005C33.6294 4.57992 35.0702 4.84406 35.8626 5.51642C36.0066 5.56444 36.1027 5.66049 36.1747 5.75655C37.0632 6.74107 37.4234 8.01374 37.6395 8.95024C38.6961 8.01374 40.2809 6.74107 42.0819 5.75655C42.274 5.66049 42.4421 5.56444 42.6342 5.51642C44.0509 4.84406 45.7078 4.57992 47.0525 4.82005C48.2531 5.01215 49.79 5.68451 50.2942 7.70158C51.2067 11.3515 43.1144 16.5383 43.0424 16.5863H42.9703Z" fill="#515151"/>
</g>
<defs>
<clipPath id="clip0_1768_1062">
<rect width="37.5" height="30" fill="white" transform="translate(18)"/>
</clipPath>
</defs>
</svg>
