<svg width="21.89" height="23" viewBox="0 0 23 23" fill="none" xmlns="http://www.w3.org/2000/svg">
<g clip-path="url(#clip0_342_245)">
<mask id="path-1-inside-1_342_245" fill="white">
<path d="M6.37515 0.713939C4.19057 0.914869 2.24113 2.26152 1.27496 4.24089C-0.182846 7.22491 0.920128 11.1238 4.48128 15.587C5.33202 16.6558 6.04169 17.4338 7.31139 18.7035C8.61102 20.0032 9.44039 20.7599 9.85935 21.0292C9.99615 21.119 10.2698 21.2429 10.4621 21.3113C10.7742 21.4182 10.8854 21.431 11.3129 21.431C12.2106 21.431 12.6724 21.2045 13.7283 20.2426C14.562 19.4859 15.8188 18.2375 16.5926 17.3911C21.0131 12.573 22.7573 8.29796 21.6543 4.98476C21.0686 3.22342 19.6536 1.75279 17.9179 1.0987C17.0586 0.773791 16.0369 0.632713 15.1476 0.72249C13.7967 0.850742 12.7194 1.29535 11.6677 2.15465L11.3129 2.44108L10.9623 2.15465C9.63277 1.07305 8.01678 0.564311 6.37515 0.713939Z"/>
</mask>
<path d="M6.37515 0.713939C4.19057 0.914869 2.24113 2.26152 1.27496 4.24089C-0.182846 7.22491 0.920128 11.1238 4.48128 15.587C5.33202 16.6558 6.04169 17.4338 7.31139 18.7035C8.61102 20.0032 9.44039 20.7599 9.85935 21.0292C9.99615 21.119 10.2698 21.2429 10.4621 21.3113C10.7742 21.4182 10.8854 21.431 11.3129 21.431C12.2106 21.431 12.6724 21.2045 13.7283 20.2426C14.562 19.4859 15.8188 18.2375 16.5926 17.3911C21.0131 12.573 22.7573 8.29796 21.6543 4.98476C21.0686 3.22342 19.6536 1.75279 17.9179 1.0987C17.0586 0.773791 16.0369 0.632713 15.1476 0.72249C13.7967 0.850742 12.7194 1.29535 11.6677 2.15465L11.3129 2.44108L10.9623 2.15465C9.63277 1.07305 8.01678 0.564311 6.37515 0.713939Z" stroke="#727272" stroke-width="4" mask="url(#path-1-inside-1_342_245)"/>
</g>
<defs>
<clipPath id="clip0_342_245">
<rect width="21.8885" height="23" fill="white" transform="translate(0.368652)"/>
</clipPath>
</defs>
</svg>
