<svg width="25" height="25" viewBox="0 0 25 25" fill="none" xmlns="http://www.w3.org/2000/svg">
<g clip-path="url(#clip0_1166_322)">
<path d="M4.08689 0.0781269C3.07126 0.263674 2.21189 0.717775 1.46482 1.46485C0.698215 2.23145 0.253879 3.08106 0.0732152 4.13574C0.00485582 4.5166 -2.69935e-05 5.57617 0.0146214 12.7002L0.0243871 20.8252L0.131809 21.2158C0.415012 22.2754 0.981418 23.1689 1.80661 23.8672C2.27048 24.2529 3.1738 24.7119 3.78415 24.8633L4.22361 24.9756H12.4756C20.3467 24.9756 20.747 24.9707 21.1181 24.8828C22.5781 24.5459 23.8037 23.5791 24.4726 22.2412C24.707 21.7773 24.8388 21.3672 24.9267 20.8594C24.9902 20.4834 25 19.3945 24.9853 12.2998L24.9756 4.17481L24.8681 3.78418C24.375 1.94824 23.0615 0.634768 21.2158 0.131838L20.8252 0.024416L12.6465 0.0195332C5.78122 0.00976753 4.40915 0.0195332 4.08689 0.0781269ZM21.0693 1.71875C21.6162 1.9043 22.0312 2.16309 22.4316 2.56836C22.8369 2.96875 23.0957 3.38379 23.2812 3.93067L23.4131 4.32129V12.5V20.6787L23.2812 21.0693C23.0957 21.6162 22.8369 22.0313 22.4316 22.4316C22.0312 22.8369 21.6162 23.0957 21.0693 23.2813L20.6787 23.4131H12.5H4.32126L3.93064 23.2813C3.38376 23.0957 2.96872 22.8369 2.56833 22.4316C2.16306 22.0313 1.90427 21.6162 1.71872 21.0693L1.58689 20.6787V12.5V4.32129L1.71872 3.93067C2.124 2.73438 3.04685 1.9043 4.27243 1.63574C4.51169 1.58203 6.06931 1.57227 12.622 1.57715L20.6787 1.58692L21.0693 1.71875Z" fill="#515151"/>
<path d="M18.4375 4.21853C17.7344 4.51638 17.334 5.11697 17.334 5.88357C17.334 6.95779 18.1836 7.73416 19.2676 7.65115C19.9072 7.60232 20.4102 7.28494 20.6885 6.75271C20.874 6.39627 20.9082 6.26443 20.9033 5.82986C20.9033 5.36111 20.7617 5.00466 20.4541 4.66287C20.0977 4.27713 19.7754 4.13552 19.1895 4.11599C18.7842 4.10134 18.6914 4.11111 18.4375 4.21853ZM19.3359 5.73709C19.4189 5.83963 19.375 5.96658 19.2285 6.05447C19.126 6.10818 19.0723 6.11306 19.0088 6.074C18.9014 6.00564 18.8672 5.82986 18.9453 5.7322C19.0234 5.64431 19.2578 5.64431 19.3359 5.73709Z" fill="#515151"/>
<path d="M11.7969 6.1521C10.293 6.34253 9.06738 6.93823 8.00293 8.00269C7.06543 8.94019 6.51855 9.95093 6.24512 11.2449C6.09375 11.948 6.09375 13.0515 6.24512 13.7546C6.51855 15.0486 7.06543 16.0593 8.00293 16.9968C8.7207 17.7146 9.46289 18.1931 10.3906 18.5251C11.6797 18.989 13.3203 18.989 14.6094 18.5251C16.4209 17.8708 17.8711 16.4207 18.5254 14.6091C18.9893 13.3201 18.9893 11.6794 18.5254 10.3904C18.1934 9.46265 17.7148 8.72046 16.9971 8.00269C16.0645 7.07007 15.0293 6.50854 13.7744 6.24976C13.2129 6.13745 12.2852 6.08862 11.7969 6.1521ZM13.6816 7.83179C14.5459 8.05151 15.2539 8.45679 15.8984 9.10132C16.543 9.74097 16.9434 10.4392 17.1729 11.3279C17.3438 11.9675 17.3535 12.9539 17.1973 13.5886C16.9727 14.4919 16.5674 15.2244 15.918 15.8738C15.2637 16.5378 14.5752 16.9382 13.6719 17.1726C13.0322 17.3435 12.0459 17.3533 11.4111 17.197C10.5078 16.9724 9.77539 16.5671 9.12598 15.9177C8.46191 15.2634 8.06152 14.575 7.82227 13.6716C7.71973 13.2761 7.7002 13.1003 7.7002 12.4998C7.7002 11.8992 7.71973 11.7234 7.82227 11.3279C8.33496 9.39429 9.91211 7.99292 11.875 7.7146C12.3535 7.64624 13.1641 7.69995 13.6816 7.83179Z" fill="#515151"/>
</g>
<defs>
<clipPath id="clip0_1166_322">
<rect width="25" height="25" fill="white"/>
</clipPath>
</defs>
</svg>
