<svg width="67" height="35" viewBox="0 0 67 35" fill="none" xmlns="http://www.w3.org/2000/svg">
<g clip-path="url(#clip0_124_107)">
<path d="M19.9314 8.07653H11.0146C8.8078 8.07653 6.15965 9.87515 5.12521 12.0872L5.09763 12.1423C4.0632 14.3476 5.02177 16.153 7.22856 16.153H13.8421L1.58745 29.2534C-0.288321 31.2587 -0.536585 33.6499 1.02886 34.5871L1.07023 34.6078C2.63567 35.545 5.44244 34.6699 7.31131 32.6714L17.6005 21.666L17.5798 32.6714C17.5729 34.6699 19.5659 35.545 22.0002 34.6078L22.0692 34.5871C24.5105 33.6499 26.5035 31.2587 26.5035 29.2534L26.531 16.153H30.5552C30.6678 16.1635 30.7842 16.1688 30.9043 16.1688H40.9916L28.7371 29.2692C26.8613 31.2745 26.613 33.6657 28.1785 34.6029L28.2199 34.6236C29.7853 35.5608 32.5921 34.6857 34.4609 32.6872L44.7501 21.6819L44.7294 32.6872C44.7225 34.6857 46.7156 35.5608 49.1499 34.6236L49.2188 34.6029C51.6601 33.6657 53.6531 31.2745 53.6531 29.2692L53.6807 16.1688H60.2942C62.501 16.1688 65.1492 14.3634 66.1836 12.1581L66.2112 12.103C67.2456 9.89096 66.287 8.09235 64.0802 8.09235H55.1634L57.0667 4.01963C58.1012 1.81443 57.1427 0.0158131 54.9358 0.0158131H54.8737C52.667 0.0158131 50.0188 1.81443 48.9844 4.01963L47.081 8.09235H37.2802C37.1675 8.08188 37.0509 8.07653 36.9306 8.07653H28.0138L29.9171 4.00381C30.9516 1.79862 29.993 0 27.7862 0H27.7242C25.5173 0 22.8692 1.79862 21.8348 4.00381L19.9314 8.07653Z" fill="#727272"/>
</g>
<defs>
<clipPath id="clip0_124_107">
<rect width="66.6279" height="35" fill="white"/>
</clipPath>
</defs>
</svg>
