<svg width="114" height="50" viewBox="0 0 114 50" fill="none" xmlns="http://www.w3.org/2000/svg">
<path d="M12.9861 34.7917C4.84811 33.4463 0.779163 30.1909 0.779163 25.026C0.779163 22.1181 1.86133 19.7309 4.02569 17.8646C6.23329 15.9549 9.02529 15 12.4017 15C15.3885 15 18.0939 15.8247 20.5179 17.4739C22.9853 19.1233 24.7601 21.3151 25.8422 24.0495L19.8687 26.0026C19.2193 24.3099 18.2454 22.9861 16.9468 22.0313C15.6482 21.033 14.1548 20.5339 12.4666 20.5339C10.865 20.5339 9.54474 20.9462 8.50586 21.7708C7.46697 22.5521 6.94754 23.5504 6.94754 24.7656C6.94754 25.8941 7.48863 26.8056 8.5708 27.5C9.69626 28.1943 11.471 28.7586 13.8951 29.1926C18.0506 29.8437 21.1889 31.0375 23.3099 32.7735C25.4743 34.5095 26.5565 36.6797 26.5565 39.2837C26.5565 42.1052 25.3661 44.4489 22.9853 46.3152C20.6478 48.1815 17.7476 49.1146 14.2847 49.1146C11.0814 49.1146 8.1812 48.3335 5.584 46.7709C2.9868 45.2083 1.12545 43.1032 0 40.4557L5.77877 38.2423C6.51466 39.9783 7.61849 41.3455 9.09023 42.3437C10.6053 43.342 12.2935 43.8412 14.1548 43.8412C15.9295 43.8412 17.4013 43.4289 18.5701 42.6043C19.7821 41.736 20.3881 40.6729 20.3881 39.414C20.3881 37.1572 17.9207 35.6163 12.9861 34.7917Z" fill="#515151"/>
<path fill-rule="evenodd" clip-rule="evenodd" d="M31.2603 31.5129C31.2603 36.5912 32.9703 40.7795 36.3897 44.078C39.8528 47.3766 44.0517 49.026 48.9862 49.026C53.9208 49.026 58.0982 47.3766 61.5177 44.078C64.9808 40.7795 66.7122 36.5912 66.7122 31.5129C66.7122 26.4349 64.9808 22.2465 61.5177 18.9479C58.0982 15.6493 53.9208 14 48.9862 14C44.0517 14 39.8528 15.6493 36.3897 18.9479C32.9703 22.2465 31.2603 26.4349 31.2603 31.5129ZM37.4288 31.5129C37.4288 28.1275 38.5325 25.3498 40.7403 23.1797C42.9911 21.0095 45.7397 19.9245 48.9862 19.9245C52.2328 19.9245 54.96 21.0095 57.1674 23.1797C59.4183 25.3498 60.544 28.1275 60.544 31.5129C60.544 34.8983 59.4183 37.6763 57.1674 39.8463C54.96 42.0166 52.2328 43.1015 48.9862 43.1015C45.7397 43.1015 42.9911 42.0166 40.7403 39.8463C38.5325 37.6763 37.4288 34.8983 37.4288 31.5129Z" fill="#515151"/>
<path d="M99.1409 16V48.552L93.0626 48.5525L92.9723 48.552V44.7705C92.7666 45.0157 92.55 45.2565 92.3231 45.4923C89.8991 48.0097 86.9123 49.2683 83.3626 49.2683C80.1163 49.2683 77.4109 48.1831 75.2463 46.0131C73.082 43.8428 72 40.9783 72 37.4194V16H78.1683V36.052C78.1683 38.3091 78.8174 40.0885 80.1163 41.3905C81.458 42.6928 83.1463 43.3437 85.1809 43.3437C87.3451 43.3437 89.1849 42.6494 90.6997 41.2605C92.2149 39.8717 92.9723 38.2223 92.9723 36.3125V16H99.1409Z" fill="#515151"/>
<path d="M107 0V48.828H113.169V0H107Z" fill="#515151"/>
</svg>
