<svg width="67" height="32" viewBox="0 0 67 32" fill="none" xmlns="http://www.w3.org/2000/svg">
<path fill-rule="evenodd" clip-rule="evenodd" d="M2.02673 6.18956H7.31663H17.4943H22.7842C24.5475 6.18956 26.682 4.79691 27.5173 3.12573V3.06383C28.3216 1.45455 27.6719 0.123791 26.0633 0H4.84182C3.14039 0.0928433 1.12961 1.4236 0.356231 3.06383V3.12573C-0.509953 4.79691 0.263425 6.18956 2.02673 6.18956Z" fill="#515151"/>
<path fill-rule="evenodd" clip-rule="evenodd" d="M66.743 13.3384C66.3718 12.7504 65.6912 12.41 64.7632 12.41H58.143L59.4732 9.87225C59.9063 9.03666 59.9373 8.23202 59.5661 7.64401C59.1948 7.056 58.5143 6.71558 57.5553 6.71558C55.761 6.71558 53.5956 8.04633 52.7294 9.68656L51.3064 12.4409H47.9654H42.892H36.2719L37.6021 9.9032C38.0352 9.06761 38.0661 8.26296 37.6949 7.67496C37.3237 7.08695 36.6431 6.74652 35.6841 6.74652C33.8899 6.74652 31.7244 8.07728 30.8583 9.71751L29.4352 12.4719H26.0942H4.84182C3.14039 12.5647 1.12961 13.8955 0.356231 15.5357V15.5976C-0.509953 17.2688 0.263425 18.6614 2.02673 18.6614H7.31663H17.4943H19.536C19.536 18.6614 19.5669 18.6614 19.5979 18.6614H24.2072L15.0195 27.5434C14.0914 28.4409 13.5965 29.4931 13.7202 30.3906C13.813 30.9477 14.1224 31.4119 14.6483 31.6904C15.9475 32.4022 18.2677 31.7833 19.8144 30.2668L27.4863 22.8703V30.1121C27.4863 30.7001 27.7338 31.2262 28.1978 31.5666C28.6 31.8452 29.1259 31.9999 29.7137 31.9999C30.1777 31.9999 30.7036 31.9071 31.2295 31.7214H31.3223C33.3331 31.0096 34.9417 29.2146 34.9417 27.6982V18.6614H39.3964H39.8913H39.9222H41.4071C41.4071 18.6614 41.4381 18.6614 41.469 18.6614H46.0783L36.8906 27.5434C35.9626 28.4409 35.4676 29.4931 35.5913 30.3906C35.6841 30.9477 35.9935 31.4119 36.5194 31.6904C37.8187 32.4022 40.1388 31.7833 41.6856 30.2668L49.3575 22.8703V30.1121C49.3575 30.7001 49.6049 31.2262 50.069 31.5666C50.4711 31.8452 50.997 31.9999 51.5848 31.9999C52.0488 31.9999 52.5747 31.9071 53.1006 31.7214H53.1934C55.2042 31.0096 56.8128 29.2146 56.8128 27.6982V18.6614H61.7934C63.5876 18.6614 65.7531 17.3307 66.6502 15.6595C67.0833 14.8239 67.1142 14.0193 66.743 13.4003V13.3384Z" fill="#515151"/>
</svg>
