<svg width="47" height="45" viewBox="0 0 47 45" fill="none" xmlns="http://www.w3.org/2000/svg">
<path d="M7.54551 37.625V44H6.10901V38.2455L6.76351 38.9H1.825L2.4795 38.2455V44H1.0345V37.625H7.54551ZM13.1123 44.1275C12.37 44.1275 11.7183 43.9887 11.1573 43.711C10.602 43.4333 10.1685 43.048 9.85684 42.555C9.54517 42.0563 9.38934 41.4755 9.38934 40.8125C9.38934 40.1495 9.54517 39.5715 9.85684 39.0785C10.1685 38.5798 10.602 38.1917 11.1573 37.914C11.7183 37.6363 12.37 37.4975 13.1123 37.4975C13.8547 37.4975 14.5035 37.6363 15.0588 37.914C15.6198 38.1917 16.0562 38.5798 16.3678 39.0785C16.6795 39.5715 16.8353 40.1495 16.8353 40.8125C16.8353 41.4755 16.6795 42.0563 16.3678 42.555C16.0562 43.048 15.6198 43.4333 15.0588 43.711C14.5035 43.9887 13.8547 44.1275 13.1123 44.1275ZM13.1123 42.844C13.577 42.844 13.9765 42.7618 14.3108 42.5975C14.6508 42.4332 14.9115 42.198 15.0928 41.892C15.2798 41.586 15.3733 41.2262 15.3733 40.8125C15.3733 40.3988 15.2798 40.039 15.0928 39.733C14.9115 39.427 14.6508 39.1918 14.3108 39.0275C13.9765 38.8632 13.577 38.781 13.1123 38.781C12.6533 38.781 12.2538 38.8632 11.9138 39.0275C11.5738 39.1918 11.3103 39.427 11.1233 39.733C10.942 40.039 10.8513 40.3988 10.8513 40.8125C10.8513 41.2262 10.942 41.586 11.1233 41.892C11.3103 42.198 11.5738 42.4332 11.9138 42.5975C12.2538 42.7618 12.6533 42.844 13.1123 42.844ZM28.0388 42.725L27.3843 43.3795V37.625H28.8293V44H18.6803V37.625H20.1253V43.3795L19.4708 42.725H23.5423L23.0323 43.3795V37.625H24.4773V43.3795L23.9248 42.725H28.0388ZM32.4731 44L33.5696 42.1045H33.5866L36.1706 37.625H37.7346L34.0371 44H32.4731ZM33.5696 43.0735L30.3906 37.625H31.9801L34.5641 42.0705L33.5696 43.0735ZM39.2729 44V37.625H40.7094V42.827L40.3014 42.538L44.2454 37.625H45.7839L40.5734 44H39.2729ZM42.3159 40.8805L43.3529 39.954L45.8774 44H44.2284L42.3159 40.8805Z" fill="#515151"/>
<g clip-path="url(#clip0_1177_163)">
<path d="M19.3779 18.587H19.3548C18.7541 18.4943 18.084 18.587 17.414 18.9346C16.744 19.2127 16.1433 19.6994 15.7505 20.2556L14.3411 22.2951L13.4863 23.5929L11.9614 25.841L10.7831 27.5328C10.0206 28.6684 10.3672 29.7345 11.5917 29.9663H11.6148C12.2155 30.059 12.8856 29.9663 13.5556 29.6186C14.2256 29.3405 14.8263 28.8538 15.2191 28.2976L16.6285 26.2581L16.8595 25.9105L19.0082 22.7354L20.1865 21.0436C20.949 19.908 20.6024 18.8419 19.3779 18.6101V18.587Z" fill="#515151"/>
<path d="M34.5805 2.75792C33.4484 0.996558 31.4845 0 29.0354 0C24.4146 0 19.1468 3.56907 17.0212 8.13469C15.8198 10.7304 15.8198 13.3492 17.0212 15.2497C18.1533 17.011 20.1172 18.0076 22.5662 18.0076C27.1871 18.0076 32.4549 14.4385 34.5805 9.87288C35.7819 7.27719 35.7819 4.6815 34.5805 2.75792ZM30.8838 8.15787C29.4282 11.2866 25.616 13.9286 22.5662 13.9286C21.85 13.9286 20.9258 13.7896 20.4637 13.0711C20.0247 12.3759 20.1172 11.1707 20.7179 9.89605C22.1735 6.76732 25.9857 4.12529 29.0354 4.12529C29.7517 4.12529 30.6758 4.26434 31.1379 4.98279C31.6 5.70124 31.4845 6.8832 30.8838 8.15787Z" fill="#515151"/>
</g>
<defs>
<clipPath id="clip0_1177_163">
<rect width="25.0619" height="30" fill="white" transform="translate(10.38)"/>
</clipPath>
</defs>
</svg>
