<svg width="65" height="48" viewBox="0 0 65 48" fill="none" xmlns="http://www.w3.org/2000/svg">
<path d="M10.116 38V47H8.088V38.876L9.012 39.8H2.04L2.964 38.876V47H0.924V38H10.116ZM17.9751 47.18C16.9271 47.18 16.0071 46.984 15.2151 46.592C14.4311 46.2 13.8191 45.656 13.3791 44.96C12.9391 44.256 12.7191 43.436 12.7191 42.5C12.7191 41.564 12.9391 40.748 13.3791 40.052C13.8191 39.348 14.4311 38.8 15.2151 38.408C16.0071 38.016 16.9271 37.82 17.9751 37.82C19.0231 37.82 19.9391 38.016 20.7231 38.408C21.5151 38.8 22.1311 39.348 22.5711 40.052C23.0111 40.748 23.2311 41.564 23.2311 42.5C23.2311 43.436 23.0111 44.256 22.5711 44.96C22.1311 45.656 21.5151 46.2 20.7231 46.592C19.9391 46.984 19.0231 47.18 17.9751 47.18ZM17.9751 45.368C18.6311 45.368 19.1951 45.252 19.6671 45.02C20.1471 44.788 20.5151 44.456 20.7711 44.024C21.0351 43.592 21.1671 43.084 21.1671 42.5C21.1671 41.916 21.0351 41.408 20.7711 40.976C20.5151 40.544 20.1471 40.212 19.6671 39.98C19.1951 39.748 18.6311 39.632 17.9751 39.632C17.3271 39.632 16.7631 39.748 16.2831 39.98C15.8031 40.212 15.4311 40.544 15.1671 40.976C14.9111 41.408 14.7831 41.916 14.7831 42.5C14.7831 43.084 14.9111 43.592 15.1671 44.024C15.4311 44.456 15.8031 44.788 16.2831 45.02C16.7631 45.252 17.3271 45.368 17.9751 45.368ZM39.0477 45.2L38.1237 46.124V38H40.1637V47H25.8357V38H27.8757V46.124L26.9517 45.2H32.6997L31.9797 46.124V38H34.0197V46.124L33.2397 45.2H39.0477ZM45.3079 47L46.8559 44.324H46.8799L50.5279 38H52.7359L47.5159 47H45.3079ZM46.8559 45.692L42.3679 38H44.6119L48.2599 44.276L46.8559 45.692ZM54.9076 47V38H56.9356V45.344L56.3596 44.936L61.9276 38H64.0996L56.7436 47H54.9076ZM59.2036 42.596L60.6676 41.288L64.2316 47H61.9036L59.2036 42.596Z" fill="#515151"/>
<g clip-path="url(#clip0_1768_1072)">
<path d="M28.9979 18.587H28.9748C28.3741 18.4943 27.704 18.587 27.034 18.9346C26.364 19.2127 25.7633 19.6994 25.3705 20.2556L23.9611 22.2951L23.1063 23.5929L21.5814 25.841L20.4031 27.5328C19.6406 28.6684 19.9872 29.7345 21.2117 29.9663H21.2348C21.8355 30.059 22.5056 29.9663 23.1756 29.6186C23.8456 29.3405 24.4463 28.8538 24.8391 28.2976L26.2485 26.2581L26.4795 25.9105L28.6282 22.7354L29.8065 21.0436C30.569 19.908 30.2224 18.8419 28.9979 18.6101V18.587Z" fill="#515151"/>
<path d="M44.2006 2.75792C43.0685 0.996558 41.1046 0 38.6556 0C34.0347 0 28.7669 3.56907 26.6413 8.13469C25.4399 10.7304 25.4399 13.3492 26.6413 15.2497C27.7734 17.011 29.7373 18.0076 32.1863 18.0076C36.8072 18.0076 42.075 14.4385 44.2006 9.87288C45.402 7.27719 45.402 4.6815 44.2006 2.75792ZM40.5039 8.15787C39.0483 11.2866 35.2361 13.9286 32.1863 13.9286C31.4701 13.9286 30.5459 13.7896 30.0838 13.0711C29.6449 12.3759 29.7373 11.1707 30.338 9.89605C31.7936 6.76732 35.6058 4.12529 38.6556 4.12529C39.3718 4.12529 40.296 4.26434 40.758 4.98279C41.2201 5.70124 41.1046 6.8832 40.5039 8.15787Z" fill="#515151"/>
</g>
<defs>
<clipPath id="clip0_1768_1072">
<rect width="25.0619" height="30" fill="white" transform="translate(20)"/>
</clipPath>
</defs>
</svg>
