<svg width="47" height="45" viewBox="0 0 47 45" fill="none" xmlns="http://www.w3.org/2000/svg">
<g clip-path="url(#clip0_1177_148)">
<path d="M45.3211 7.14853H45.2735C45.2735 7.14853 45.202 7.14853 45.1543 7.14853H38.9351L39.0304 6.93407L40.1027 4.62272L40.2695 4.24146L41.175 2.31136C41.7707 1.04845 41.2226 0 39.9597 0H39.9121C39.9121 0 39.9121 0 39.8882 0H28.0455H27.9978C27.3783 0 26.7111 0.238285 26.0916 0.667197C25.9963 0.714853 25.9248 0.786339 25.8295 0.857824C25.3291 1.23908 24.8763 1.7633 24.6142 2.31136L23.5419 4.62272L22.5411 6.7911H22.5173L22.3505 7.14853H16.0836C15.4641 7.14853 14.7969 7.38681 14.1773 7.81573C13.5578 8.22081 13.0098 8.81652 12.7 9.45989L11.6277 11.7712L10.6269 13.9396H10.6031L9.5308 16.251L9.26869 16.8229L8.31555 18.8721L7.31476 21.0405L6.24248 23.3519L5.31317 25.3773L4.24089 27.6886C3.64518 28.9515 4.19323 30 5.45614 30H34.8843C36.1233 29.9047 37.553 28.9039 38.1249 27.6886L39.0542 25.6632L40.1265 23.3519L41.1273 21.1596L42.1996 18.8483L43.2719 16.5369C43.2719 16.5369 43.2957 16.4178 43.3195 16.3463L43.3672 16.2272L44.368 14.0349L45.4403 11.7236L46.5125 9.41223C47.1082 8.14932 46.5602 7.10087 45.2973 7.10087L45.3211 7.14853ZM27.1162 6.93407L28.1885 4.62272L28.3553 4.24146H35.6229L35.4561 4.62272L34.4553 6.7911H34.4315L34.2647 7.14853H27.0209L27.1162 6.93407ZM35.4561 23.3757L34.5268 25.4011L34.36 25.7824H9.76909L9.81674 25.687L10.889 23.3757L11.8898 21.1835L12.1519 20.6354C12.1519 20.6354 12.1519 20.6116 12.1758 20.5878L12.9621 18.8959L13.391 17.9666L14.1773 16.2986L15.202 14.1064L16.2743 11.7951L16.441 11.4138H20.3966L19.4434 13.4631C18.8477 14.726 19.3958 15.7744 20.6587 15.7744H20.7063C21.9692 15.7744 23.4943 14.726 24.09 13.4631L25.0193 11.4376L32.287 11.4138L31.3338 13.4631C30.7381 14.726 31.2862 15.7744 32.5491 15.7744H32.5967C33.8596 15.7744 35.3847 14.726 35.9804 13.4631L36.9097 11.4376L40.9605 11.4138L40.7937 11.7951L39.7929 13.9635L38.7206 16.2748L37.7913 18.3002L36.719 20.6116C36.719 20.6116 36.6952 20.7307 36.6714 20.8022L36.5522 21.0643L35.48 23.3757H35.4561Z" fill="#515151"/>
</g>
<path d="M1.42069 44V37.625H2.85719V42.827L2.44919 42.538L6.39319 37.625H7.93169L2.72119 44H1.42069ZM4.46369 40.8805L5.50069 39.954L8.02519 44H6.37619L4.46369 40.8805ZM12.5107 44.1275C11.7684 44.1275 11.1167 43.9887 10.5557 43.711C10.0004 43.4333 9.5669 43.048 9.25523 42.555C8.94356 42.0563 8.78773 41.4755 8.78773 40.8125C8.78773 40.1495 8.94356 39.5715 9.25523 39.0785C9.5669 38.5798 10.0004 38.1917 10.5557 37.914C11.1167 37.6363 11.7684 37.4975 12.5107 37.4975C13.2531 37.4975 13.9019 37.6363 14.4572 37.914C15.0182 38.1917 15.4546 38.5798 15.7662 39.0785C16.0779 39.5715 16.2337 40.1495 16.2337 40.8125C16.2337 41.4755 16.0779 42.0563 15.7662 42.555C15.4546 43.048 15.0182 43.4333 14.4572 43.711C13.9019 43.9887 13.2531 44.1275 12.5107 44.1275ZM12.5107 42.844C12.9754 42.844 13.3749 42.7618 13.7092 42.5975C14.0492 42.4332 14.3099 42.198 14.4912 41.892C14.6782 41.586 14.7717 41.2262 14.7717 40.8125C14.7717 40.3988 14.6782 40.039 14.4912 39.733C14.3099 39.427 14.0492 39.1918 13.7092 39.0275C13.3749 38.8632 12.9754 38.781 12.5107 38.781C12.0517 38.781 11.6522 38.8632 11.3122 39.0275C10.9722 39.1918 10.7087 39.427 10.5217 39.733C10.3404 40.039 10.2497 40.3988 10.2497 40.8125C10.2497 41.2262 10.3404 41.586 10.5217 41.892C10.7087 42.198 10.9722 42.4332 11.3122 42.5975C11.6522 42.7618 12.0517 42.844 12.5107 42.844ZM27.4372 42.725L26.7827 43.3795V37.625H28.2277V44H18.0787V37.625H19.5237V43.3795L18.8692 42.725H22.9407L22.4307 43.3795V37.625H23.8757V43.3795L23.3232 42.725H27.4372ZM30.3755 44V37.625H31.7865V43.269L31.353 43.184L35.382 37.625H37.2605V44H35.8495V38.2795L36.283 38.3645L32.203 44H30.3755ZM39.4183 44V37.625H40.8548V42.827L40.4468 42.538L44.3908 37.625H45.9293L40.7188 44H39.4183ZM42.4613 40.8805L43.4983 39.954L46.0228 44H44.3738L42.4613 40.8805Z" fill="#515151"/>
<defs>
<clipPath id="clip0_1177_148">
<rect width="42.6165" height="30" fill="white" transform="translate(4.38)"/>
</clipPath>
</defs>
</svg>
