<svg width="64" height="48" viewBox="0 0 64 48" fill="none" xmlns="http://www.w3.org/2000/svg">
<path d="M0.99861 47V38H3.02661V45.344L2.45061 44.936L8.01861 38H10.1906L2.83461 47H0.99861ZM5.29461 42.596L6.75861 41.288L10.3226 47H7.99461L5.29461 42.596ZM16.6551 47.18C15.6071 47.18 14.6871 46.984 13.8951 46.592C13.1111 46.2 12.4991 45.656 12.0591 44.96C11.6191 44.256 11.3991 43.436 11.3991 42.5C11.3991 41.564 11.6191 40.748 12.0591 40.052C12.4991 39.348 13.1111 38.8 13.8951 38.408C14.6871 38.016 15.6071 37.82 16.6551 37.82C17.7031 37.82 18.6191 38.016 19.4031 38.408C20.1951 38.8 20.8111 39.348 21.2511 40.052C21.6911 40.748 21.9111 41.564 21.9111 42.5C21.9111 43.436 21.6911 44.256 21.2511 44.96C20.8111 45.656 20.1951 46.2 19.4031 46.592C18.6191 46.984 17.7031 47.18 16.6551 47.18ZM16.6551 45.368C17.3111 45.368 17.8751 45.252 18.3471 45.02C18.8271 44.788 19.1951 44.456 19.4511 44.024C19.7151 43.592 19.8471 43.084 19.8471 42.5C19.8471 41.916 19.7151 41.408 19.4511 40.976C19.1951 40.544 18.8271 40.212 18.3471 39.98C17.8751 39.748 17.3111 39.632 16.6551 39.632C16.0071 39.632 15.4431 39.748 14.9631 39.98C14.4831 40.212 14.1111 40.544 13.8471 40.976C13.5911 41.408 13.4631 41.916 13.4631 42.5C13.4631 43.084 13.5911 43.592 13.8471 44.024C14.1111 44.456 14.4831 44.788 14.9631 45.02C15.4431 45.252 16.0071 45.368 16.6551 45.368ZM37.7278 45.2L36.8038 46.124V38H38.8438V47H24.5158V38H26.5558V46.124L25.6318 45.2H31.3798L30.6598 46.124V38H32.6998V46.124L31.9198 45.2H37.7278ZM41.876 47V38H43.868V45.968L43.256 45.848L48.944 38H51.596V47H49.604V38.924L50.216 39.044L44.456 47H41.876ZM54.6424 47V38H56.6704V45.344L56.0944 44.936L61.6624 38H63.8344L56.4784 47H54.6424ZM58.9384 42.596L60.4024 41.288L63.9664 47H61.6384L58.9384 42.596Z" fill="#515151"/>
<g clip-path="url(#clip0_1768_1057)">
<path d="M51.9412 7.14853H51.8936C51.8936 7.14853 51.8221 7.14853 51.7744 7.14853H45.5552L45.6505 6.93407L46.7228 4.62272L46.8896 4.24146L47.7951 2.31136C48.3908 1.04845 47.8427 0 46.5798 0H46.5322C46.5322 0 46.5322 0 46.5083 0H34.6656H34.618C33.9984 0 33.3312 0.238285 32.7117 0.667197C32.6164 0.714853 32.5449 0.786339 32.4496 0.857824C31.9492 1.23908 31.4964 1.7633 31.2343 2.31136L30.162 4.62272L29.1612 6.7911H29.1374L28.9706 7.14853H22.7037C22.0842 7.14853 21.417 7.38681 20.7975 7.81573C20.1779 8.22081 19.6299 8.81652 19.3201 9.45989L18.2478 11.7712L17.247 13.9396H17.2232L16.1509 16.251L15.8888 16.8229L14.9357 18.8721L13.9349 21.0405L12.8626 23.3519L11.9333 25.3773L10.861 27.6886C10.2653 28.9515 10.8134 30 12.0763 30H41.5044C42.7435 29.9047 44.1732 28.9039 44.745 27.6886L45.6744 25.6632L46.7466 23.3519L47.7474 21.1596L48.8197 18.8483L49.892 16.5369C49.892 16.5369 49.9158 16.4178 49.9396 16.3463L49.9873 16.2272L50.9881 14.0349L52.0604 11.7236L53.1327 9.41223C53.7284 8.14932 53.1803 7.10087 51.9174 7.10087L51.9412 7.14853ZM33.7363 6.93407L34.8086 4.62272L34.9754 4.24146H42.2431L42.0763 4.62272L41.0755 6.7911H41.0516L40.8848 7.14853H33.641L33.7363 6.93407ZM42.0763 23.3757L41.1469 25.4011L40.9801 25.7824H16.3892L16.4369 25.687L17.5091 23.3757L18.5099 21.1835L18.772 20.6354C18.772 20.6354 18.772 20.6116 18.7959 20.5878L19.5822 18.8959L20.0111 17.9666L20.7975 16.2986L21.8221 14.1064L22.8944 11.7951L23.0612 11.4138H27.0167L26.0635 13.4631C25.4678 14.726 26.0159 15.7744 27.2788 15.7744H27.3265C28.5894 15.7744 30.1144 14.726 30.7101 13.4631L31.6394 11.4376L38.9071 11.4138L37.9539 13.4631C37.3582 14.726 37.9063 15.7744 39.1692 15.7744H39.2168C40.4797 15.7744 42.0048 14.726 42.6005 13.4631L43.5298 11.4376L47.5806 11.4138L47.4138 11.7951L46.413 13.9635L45.3408 16.2748L44.4114 18.3002L43.3392 20.6116C43.3392 20.6116 43.3153 20.7307 43.2915 20.8022L43.1724 21.0643L42.1001 23.3757H42.0763Z" fill="#515151"/>
</g>
<defs>
<clipPath id="clip0_1768_1057">
<rect width="42.6165" height="30" fill="white" transform="translate(11)"/>
</clipPath>
</defs>
</svg>
