<svg width="25" height="25" viewBox="0 0 25 25" fill="none" xmlns="http://www.w3.org/2000/svg">
<g clip-path="url(#clip0_1166_319)">
<path d="M23.8281 1.14263C23.0225 1.43071 0.541992 10.2149 0.390625 10.2979C0.195312 10.4053 0 10.7325 0 10.9571C0 11.045 0.0488281 11.211 0.112305 11.3282L0.219727 11.5479L3.44238 13.1592C6.38184 14.629 6.68457 14.7706 6.90918 14.7706C7.16797 14.7706 6.99219 14.8682 12.5488 11.6309C12.7002 11.543 12.6123 11.626 10.8203 13.2081C10.0244 13.9112 9.34082 14.5557 9.28223 14.6534C9.17969 14.8291 9.17969 14.8633 9.17969 18.5743C9.17969 22.1534 9.18457 22.3243 9.27246 22.5C9.46289 22.8711 10.0146 23.0176 10.3564 22.7881C10.4834 22.7051 12.9639 19.502 13.1787 19.1504C13.2031 19.1016 14.0918 19.5899 16.5332 20.9815L19.8486 22.876H20.1514C20.498 22.876 20.6738 22.7784 20.8154 22.5049C20.9033 22.3389 25 2.02641 25 1.76763C25 1.54302 24.7998 1.25493 24.5605 1.13286C24.292 1.00102 24.2236 1.00102 23.8281 1.14263ZM21.3818 11.9971C20.4102 16.8555 19.5996 20.8399 19.585 20.8594C19.5654 20.879 18.1396 20.0928 16.416 19.1114C14.248 17.876 13.2178 17.3145 13.0859 17.2999C12.9541 17.2803 12.8369 17.3047 12.6855 17.378C12.5098 17.461 12.3389 17.6661 11.6113 18.6329L10.7422 19.7901L10.7471 17.5733V15.3565L15.1953 11.4258C17.6367 9.26274 19.6875 7.4268 19.751 7.34868C19.9219 7.12895 19.9512 6.88969 19.834 6.63091C19.6582 6.2354 19.2822 6.03032 18.9355 6.14751C18.8477 6.1768 16.0938 7.75884 12.8174 9.66313L6.86523 13.125L4.7998 12.0948C3.59375 11.4893 2.76367 11.0499 2.79785 11.0254C2.83203 11.0108 4.95605 10.1758 7.51953 9.17485C10.083 8.17387 14.6436 6.39653 17.6514 5.22466C20.6592 4.05278 23.125 3.1104 23.1348 3.12993C23.1445 3.15434 22.3584 7.1436 21.3818 11.9971Z" fill="#515151"/>
</g>
<defs>
<clipPath id="clip0_1166_319">
<rect width="25" height="25" fill="white"/>
</clipPath>
</defs>
</svg>
