<svg width="25" height="25" viewBox="0 0 25 25" fill="none" xmlns="http://www.w3.org/2000/svg">
<path d="M12.9492 0.0831585C12.8613 0.127104 12.7393 0.229643 12.6807 0.312651L12.5732 0.464018L12.5488 8.91128L12.5244 17.3585L12.4121 17.6759C12.085 18.5744 11.3867 19.2384 10.4688 19.5119C10.0586 19.6339 9.39942 19.6291 8.95997 19.4923C7.76856 19.131 6.97755 18.0812 6.96778 16.8459C6.9629 16.0255 7.2168 15.425 7.80762 14.839C8.33985 14.3117 8.78419 14.1115 9.61427 14.0187C10.044 13.9699 10.1856 13.9015 10.3711 13.6525C10.4688 13.5207 10.4736 13.4621 10.4736 11.338C10.4736 9.30679 10.4688 9.14566 10.3857 9.00894C10.1904 8.69644 10.1074 8.66714 9.35059 8.67203C8.05176 8.68667 6.61622 9.12124 5.42481 9.8732C3.84766 10.8595 2.57813 12.466 2.00196 14.2043C1.16212 16.7335 1.55274 19.38 3.08594 21.5578C3.48145 22.1193 4.44337 23.0812 5.00489 23.4767C7.98341 25.5763 11.9287 25.4884 14.7705 23.2668C16.1621 22.1779 17.1924 20.6252 17.6465 18.9406C17.9102 17.9543 17.9199 17.7687 17.9199 13.5793C17.9199 11.4552 17.9297 9.71695 17.9395 9.71695C17.9443 9.71695 18.169 9.81949 18.4375 9.94156C19.0869 10.2443 19.917 10.5177 20.6543 10.6642C21.3525 10.8058 22.5537 10.9181 22.8223 10.8693C23.0566 10.8253 23.3252 10.5861 23.3887 10.3615C23.418 10.2541 23.4375 9.38003 23.4375 8.15445C23.4375 6.14761 23.4375 6.1232 23.3252 5.90835C23.169 5.59585 23.0078 5.52261 22.3535 5.4689C21.6748 5.41031 21.2061 5.28335 20.6299 5.00503C19.4238 4.42398 18.5449 3.39371 18.1445 2.09976C18.0664 1.85562 17.9883 1.42593 17.9492 1.05972C17.8809 0.371244 17.8223 0.239408 17.5244 0.0880413C17.3731 0.00991631 17.1631 0.000150681 15.2344 0.000150681C13.3789 0.000150681 13.0908 0.00991631 12.9492 0.0831585ZM16.5039 1.48941C16.5039 1.6066 16.6797 2.3439 16.7822 2.66128C17.2803 4.20914 18.4619 5.57144 19.9463 6.31363C20.3906 6.53335 21.1182 6.77261 21.582 6.85074L21.9482 6.91421L21.9629 8.14956L21.9727 9.3898L21.6699 9.35562C20.3906 9.20914 18.96 8.68179 17.8955 7.95914C17.5635 7.73453 17.4658 7.69546 17.2363 7.68081C16.8945 7.6564 16.6846 7.77847 16.5527 8.07144C16.46 8.26675 16.4551 8.44742 16.4551 12.8419C16.4551 16.6115 16.4404 17.4855 16.3818 17.8468C16.0742 19.7414 14.9951 21.4064 13.4033 22.4367C12.8809 22.7785 12.5195 22.9591 11.9336 23.1593C11.1182 23.4425 10.6836 23.5109 9.7168 23.506C8.96973 23.506 8.79395 23.4865 8.31544 23.3742C5.63966 22.7492 3.72559 20.7863 3.14454 18.0666C3.01759 17.4904 3.01759 16.1574 3.13966 15.5763C3.25684 15.0246 3.52051 14.2482 3.73048 13.8332C4.36036 12.5832 5.44434 11.4796 6.67481 10.8498C7.37305 10.4884 8.45216 10.1564 8.91114 10.1564H9.03321L9.02344 11.382L9.0088 12.6076L8.66212 12.6955C7.15333 13.0812 5.97169 14.3117 5.58594 15.8986C5.46387 16.3966 5.47852 17.339 5.61036 17.8468C5.96192 19.1652 6.88477 20.2296 8.12501 20.7472C8.6963 20.9865 9.08204 21.0597 9.74122 21.0597C10.376 21.0597 10.7715 20.9865 11.3232 20.7668C12.4024 20.3371 13.3057 19.424 13.7256 18.34C14.0234 17.5734 14.0137 17.8761 14.0137 9.29703V1.46499H15.2588C15.9424 1.46499 16.5039 1.47476 16.5039 1.48941Z" fill="#515151"/>
</svg>
