<svg width="109" height="65" viewBox="0 0 109 65" fill="none" xmlns="http://www.w3.org/2000/svg">
<path d="M6.02389 47.18C4.97589 47.18 4.05589 46.984 3.26389 46.592C2.47989 46.2 1.86789 45.656 1.42789 44.96C0.987891 44.256 0.767891 43.436 0.767891 42.5C0.767891 41.564 0.987891 40.748 1.42789 40.052C1.86789 39.348 2.47989 38.8 3.26389 38.408C4.05589 38.016 4.97589 37.82 6.02389 37.82C7.07189 37.82 7.98789 38.016 8.77189 38.408C9.56389 38.8 10.1799 39.348 10.6199 40.052C11.0599 40.748 11.2799 41.564 11.2799 42.5C11.2799 43.436 11.0599 44.256 10.6199 44.96C10.1799 45.656 9.56389 46.2 8.77189 46.592C7.98789 46.984 7.07189 47.18 6.02389 47.18ZM6.02389 45.368C6.67989 45.368 7.24389 45.252 7.71589 45.02C8.19589 44.788 8.56389 44.456 8.81989 44.024C9.08389 43.592 9.21589 43.084 9.21589 42.5C9.21589 41.916 9.08389 41.408 8.81989 40.976C8.56389 40.544 8.19589 40.212 7.71589 39.98C7.24389 39.748 6.67989 39.632 6.02389 39.632C5.37589 39.632 4.81189 39.748 4.33189 39.98C3.85189 40.212 3.47989 40.544 3.21589 40.976C2.95989 41.408 2.83189 41.916 2.83189 42.5C2.83189 43.084 2.95989 43.592 3.21589 44.024C3.47989 44.456 3.85189 44.788 4.33189 45.02C4.81189 45.252 5.37589 45.368 6.02389 45.368ZM23.6285 43.34C23.5405 44.1 23.2725 44.772 22.8245 45.356C22.3845 45.932 21.8005 46.38 21.0725 46.7C20.3525 47.02 19.5285 47.18 18.6005 47.18C17.5765 47.18 16.6765 46.984 15.9005 46.592C15.1325 46.2 14.5325 45.656 14.1005 44.96C13.6685 44.256 13.4525 43.436 13.4525 42.5C13.4525 41.564 13.6685 40.748 14.1005 40.052C14.5325 39.348 15.1325 38.8 15.9005 38.408C16.6765 38.016 17.5765 37.82 18.6005 37.82C19.5285 37.82 20.3525 37.98 21.0725 38.3C21.8005 38.62 22.3845 39.068 22.8245 39.644C23.2725 40.22 23.5405 40.892 23.6285 41.66H21.5765C21.4965 41.236 21.3245 40.872 21.0605 40.568C20.7965 40.256 20.4565 40.016 20.0405 39.848C19.6245 39.68 19.1405 39.596 18.5885 39.596C17.9565 39.596 17.4085 39.716 16.9445 39.956C16.4885 40.188 16.1365 40.524 15.8885 40.964C15.6405 41.396 15.5165 41.908 15.5165 42.5C15.5165 43.092 15.6405 43.608 15.8885 44.048C16.1365 44.48 16.4885 44.816 16.9445 45.056C17.4085 45.288 17.9565 45.404 18.5885 45.404C19.1405 45.404 19.6245 45.324 20.0405 45.164C20.4565 44.996 20.7965 44.76 21.0605 44.456C21.3245 44.144 21.4965 43.772 21.5765 43.34H23.6285ZM30.9708 47.18C29.9228 47.18 29.0028 46.984 28.2108 46.592C27.4268 46.2 26.8148 45.656 26.3748 44.96C25.9348 44.256 25.7148 43.436 25.7148 42.5C25.7148 41.564 25.9348 40.748 26.3748 40.052C26.8148 39.348 27.4268 38.8 28.2108 38.408C29.0028 38.016 29.9228 37.82 30.9708 37.82C32.0188 37.82 32.9348 38.016 33.7188 38.408C34.5108 38.8 35.1268 39.348 35.5668 40.052C36.0068 40.748 36.2268 41.564 36.2268 42.5C36.2268 43.436 36.0068 44.256 35.5668 44.96C35.1268 45.656 34.5108 46.2 33.7188 46.592C32.9348 46.984 32.0188 47.18 30.9708 47.18ZM30.9708 45.368C31.6268 45.368 32.1908 45.252 32.6628 45.02C33.1428 44.788 33.5108 44.456 33.7668 44.024C34.0308 43.592 34.1628 43.084 34.1628 42.5C34.1628 41.916 34.0308 41.408 33.7668 40.976C33.5108 40.544 33.1428 40.212 32.6628 39.98C32.1908 39.748 31.6268 39.632 30.9708 39.632C30.3228 39.632 29.7588 39.748 29.2788 39.98C28.7988 40.212 28.4268 40.544 28.1628 40.976C27.9068 41.408 27.7788 41.916 27.7788 42.5C27.7788 43.084 27.9068 43.592 28.1628 44.024C28.4268 44.456 28.7988 44.788 29.2788 45.02C29.7588 45.252 30.3228 45.368 30.9708 45.368ZM40.0217 41.516H44.1017C44.8217 41.516 45.4217 41.632 45.9017 41.864C46.3817 42.088 46.7417 42.408 46.9817 42.824C47.2217 43.232 47.3417 43.712 47.3417 44.264C47.3417 44.816 47.2097 45.296 46.9457 45.704C46.6897 46.112 46.3177 46.432 45.8297 46.664C45.3497 46.888 44.7737 47 44.1017 47H38.4497L39.1457 42.284L38.4497 38H46.6217V39.608H39.7097L40.4897 38.624L41.0897 42.248L40.4537 46.424L39.6737 45.464H43.8737C44.3137 45.464 44.6617 45.352 44.9177 45.128C45.1817 44.904 45.3137 44.6 45.3137 44.216C45.3137 43.832 45.1817 43.528 44.9177 43.304C44.6537 43.08 44.3017 42.968 43.8617 42.968H40.0217V41.516ZM49.84 47V38H51.832V45.968L51.22 45.848L56.908 38H59.56V47H57.568V38.924L58.18 39.044L52.42 47H49.84ZM72.3504 43.34C72.2624 44.1 71.9944 44.772 71.5464 45.356C71.1064 45.932 70.5224 46.38 69.7944 46.7C69.0744 47.02 68.2504 47.18 67.3224 47.18C66.2984 47.18 65.3984 46.984 64.6224 46.592C63.8544 46.2 63.2544 45.656 62.8224 44.96C62.3904 44.256 62.1744 43.436 62.1744 42.5C62.1744 41.564 62.3904 40.748 62.8224 40.052C63.2544 39.348 63.8544 38.8 64.6224 38.408C65.3984 38.016 66.2984 37.82 67.3224 37.82C68.2504 37.82 69.0744 37.98 69.7944 38.3C70.5224 38.62 71.1064 39.068 71.5464 39.644C71.9944 40.22 72.2624 40.892 72.3504 41.66H70.2984C70.2184 41.236 70.0464 40.872 69.7824 40.568C69.5184 40.256 69.1784 40.016 68.7624 39.848C68.3464 39.68 67.8624 39.596 67.3104 39.596C66.6784 39.596 66.1304 39.716 65.6664 39.956C65.2104 40.188 64.8584 40.524 64.6104 40.964C64.3624 41.396 64.2384 41.908 64.2384 42.5C64.2384 43.092 64.3624 43.608 64.6104 44.048C64.8584 44.48 65.2104 44.816 65.6664 45.056C66.1304 45.288 66.6784 45.404 67.3104 45.404C67.8624 45.404 68.3464 45.324 68.7624 45.164C69.1784 44.996 69.5184 44.76 69.7824 44.456C70.0464 44.144 70.2184 43.772 70.2984 43.34H72.3504ZM77.3619 38.912H79.3899V47H77.3619V38.912ZM73.7739 38H82.9659V39.8H73.7739V38ZM85.3033 47V38H87.2953V45.968L86.6833 45.848L92.3713 38H95.0233V47H93.0313V38.924L93.6433 39.044L87.8833 47H85.3033ZM98.0697 47V38H100.062V45.968L99.4497 45.848L105.138 38H107.79V47H105.798V38.924L106.41 39.044L100.65 47H98.0697ZM100.038 35.336H101.658C101.754 35.616 101.902 35.832 102.102 35.984C102.31 36.136 102.57 36.212 102.882 36.212C103.194 36.212 103.45 36.136 103.65 35.984C103.858 35.832 104.006 35.616 104.094 35.336H105.726C105.566 36.04 105.234 36.556 104.73 36.884C104.226 37.212 103.61 37.376 102.882 37.376C102.154 37.376 101.538 37.212 101.034 36.884C100.53 36.556 100.198 36.04 100.038 35.336ZM19.2986 65V56H21.3266V63.344L20.7506 62.936L26.3186 56H28.4906L21.1346 65H19.2986ZM23.5946 60.596L25.0586 59.288L28.6226 65H26.2946L23.5946 60.596ZM32.1816 63.104V61.448H38.4216V63.104H32.1816ZM36.6576 56L40.8696 65H38.6976L35.0136 56.828H35.6856L32.0016 65H29.8296L34.0416 56H36.6576ZM44.3225 59.516H48.4025C49.1225 59.516 49.7225 59.632 50.2025 59.864C50.6825 60.088 51.0425 60.408 51.2825 60.824C51.5225 61.232 51.6425 61.712 51.6425 62.264C51.6425 62.816 51.5105 63.296 51.2465 63.704C50.9905 64.112 50.6185 64.432 50.1305 64.664C49.6505 64.888 49.0745 65 48.4025 65H42.7505L43.4465 60.284L42.7505 56H50.9225V57.608H44.0105L44.7905 56.624L45.3905 60.248L44.7545 64.424L43.9745 63.464H48.1745C48.6145 63.464 48.9625 63.352 49.2185 63.128C49.4825 62.904 49.6145 62.6 49.6145 62.216C49.6145 61.832 49.4825 61.528 49.2185 61.304C48.9545 61.08 48.6025 60.968 48.1625 60.968H44.3225V59.516ZM54.1408 56H56.1808V65H54.1408V56ZM59.2197 56H61.2597V65H59.2197V56ZM66.4197 56H68.4597V65H66.4197V56ZM60.3357 59.552H67.3197V61.34H60.3357V59.552ZM78.9456 59.72V61.28H72.5016V59.72H78.9456ZM73.8696 60.5L73.2696 64.316L72.3816 63.308H79.3176V65H71.2176L71.9136 60.5L71.2176 56H79.2576V57.692H72.3816L73.2696 56.684L73.8696 60.5ZM84.808 56.912H86.836V65H84.808V56.912ZM81.22 56H90.412V57.8H81.22V56Z" fill="#515151"/>
<g clip-path="url(#clip0_1768_1066)">
<path d="M64.89 15.9519L64.6354 15.7429L62.7604 14.3962L62.066 13.8389H62.0428C61.5335 13.4674 60.5613 13.7925 59.6354 14.7445L58.6863 15.6965L57.7835 16.6021L57.5289 16.8575L57.4363 16.9504L55.2141 19.1795L53.1307 21.2693L51.7187 22.6857V21.2693L51.6492 19.1795L51.6029 16.9504V16.8575V16.6021V15.6965L51.5567 14.7445C51.5567 13.7925 50.9085 13.4674 50.0289 13.8389H50.0057L48.7557 14.3962L45.5844 15.7429L45.1446 15.9519L42.8529 16.9272C41.3483 17.5541 40.6075 18.6919 41.2094 19.4349H41.2557C41.5566 19.8296 42.1122 20.0386 42.8298 20.0618C43.5242 20.1083 44.3575 19.969 45.1446 19.6439L47.089 18.808L47.1353 20.5262L47.2048 22.5928H47.1816L47.2511 24.8219L47.3205 26.7491L47.39 28.955C47.39 28.955 47.4363 29.0479 47.4363 29.1176C47.4363 29.1872 47.4363 29.3033 47.4363 29.373V29.4194C47.4363 29.4194 47.5057 29.5123 47.5289 29.5587C47.5752 29.6516 47.6215 29.6981 47.6909 29.7677C47.7835 29.8374 47.8529 29.907 47.9687 29.9535C48.0613 29.9767 48.1539 29.9999 48.2696 29.9999C48.3853 29.9999 48.4779 29.9999 48.6168 29.9535C48.7557 29.907 48.9178 29.8606 49.0798 29.7677C49.1955 29.6981 49.3113 29.6516 49.4502 29.5587C49.5428 29.5123 49.6122 29.4891 49.6816 29.4194L49.7279 29.373C49.7279 29.373 49.89 29.2104 49.9826 29.1176C50.052 29.0479 50.1215 29.0247 50.1909 28.955L52.39 26.7491L54.3113 24.8219L56.5104 22.616L58.5706 20.5262L60.2835 18.808L61.3947 19.6439C61.8576 19.969 62.5521 20.1083 63.2928 20.0618C64.0336 20.0386 64.7974 19.8296 65.4687 19.4581H65.515C66.8576 18.6919 67.2049 17.5541 66.3252 16.9272L64.9595 15.9519H64.89Z" fill="#515151"/>
<path d="M56.58 13.3746C60.2606 13.3746 64.7282 10.3793 66.5106 6.68731C68.293 2.99536 66.7653 0 63.0847 0C59.4041 0 54.9365 2.99536 53.1541 6.68731C51.3717 10.3793 52.8995 13.3746 56.58 13.3746ZM57.2513 6.68731C57.9458 5.24768 59.6587 4.08669 61.0939 4.08669C62.5291 4.08669 63.1078 5.24768 62.4134 6.68731C61.7189 8.12694 60.006 9.28793 58.5708 9.28793C57.1356 9.28793 56.5569 8.12694 57.2513 6.68731Z" fill="#515151"/>
</g>
<defs>
<clipPath id="clip0_1768_1066">
<rect width="26.2501" height="30" fill="white" transform="translate(41)"/>
</clipPath>
</defs>
</svg>
