<svg width="78" height="56" viewBox="0 0 78 56" fill="none" xmlns="http://www.w3.org/2000/svg">
<path d="M4.54276 44.1275C3.80043 44.1275 3.14876 43.9887 2.58776 43.711C2.03243 43.4333 1.59893 43.048 1.28726 42.555C0.975593 42.0563 0.819759 41.4755 0.819759 40.8125C0.819759 40.1495 0.975593 39.5715 1.28726 39.0785C1.59893 38.5798 2.03243 38.1917 2.58776 37.914C3.14876 37.6363 3.80043 37.4975 4.54276 37.4975C5.28509 37.4975 5.93393 37.6363 6.48926 37.914C7.05026 38.1917 7.48659 38.5798 7.79826 39.0785C8.10993 39.5715 8.26576 40.1495 8.26576 40.8125C8.26576 41.4755 8.10993 42.0563 7.79826 42.555C7.48659 43.048 7.05026 43.4333 6.48926 43.711C5.93393 43.9887 5.28509 44.1275 4.54276 44.1275ZM4.54276 42.844C5.00743 42.844 5.40693 42.7618 5.74126 42.5975C6.08126 42.4332 6.34193 42.198 6.52326 41.892C6.71026 41.586 6.80376 41.2262 6.80376 40.8125C6.80376 40.3988 6.71026 40.039 6.52326 39.733C6.34193 39.427 6.08126 39.1918 5.74126 39.0275C5.40693 38.8632 5.00743 38.781 4.54276 38.781C4.08376 38.781 3.68426 38.8632 3.34426 39.0275C3.00426 39.1918 2.74076 39.427 2.55376 39.733C2.37243 40.039 2.28176 40.3988 2.28176 40.8125C2.28176 41.2262 2.37243 41.586 2.55376 41.892C2.74076 42.198 3.00426 42.4332 3.34426 42.5975C3.68426 42.7618 4.08376 42.844 4.54276 42.844ZM17.0127 41.4075C16.9504 41.9458 16.7606 42.4218 16.4432 42.8355C16.1316 43.2435 15.7179 43.5608 15.2022 43.7875C14.6922 44.0142 14.1086 44.1275 13.4512 44.1275C12.7259 44.1275 12.0884 43.9887 11.5387 43.711C10.9947 43.4333 10.5697 43.048 10.2637 42.555C9.95772 42.0563 9.80472 41.4755 9.80472 40.8125C9.80472 40.1495 9.95772 39.5715 10.2637 39.0785C10.5697 38.5798 10.9947 38.1917 11.5387 37.914C12.0884 37.6363 12.7259 37.4975 13.4512 37.4975C14.1086 37.4975 14.6922 37.6108 15.2022 37.8375C15.7179 38.0642 16.1316 38.3815 16.4432 38.7895C16.7606 39.1975 16.9504 39.6735 17.0127 40.2175H15.5592C15.5026 39.9172 15.3807 39.6593 15.1937 39.444C15.0067 39.223 14.7659 39.053 14.4712 38.934C14.1766 38.815 13.8337 38.7555 13.4427 38.7555C12.9951 38.7555 12.6069 38.8405 12.2782 39.0105C11.9552 39.1748 11.7059 39.4128 11.5302 39.7245C11.3546 40.0305 11.2667 40.3932 11.2667 40.8125C11.2667 41.2318 11.3546 41.5973 11.5302 41.909C11.7059 42.215 11.9552 42.453 12.2782 42.623C12.6069 42.7873 12.9951 42.8695 13.4427 42.8695C13.8337 42.8695 14.1766 42.8128 14.4712 42.6995C14.7659 42.5805 15.0067 42.4133 15.1937 42.198C15.3807 41.977 15.5026 41.7135 15.5592 41.4075H17.0127ZM22.2135 44.1275C21.4711 44.1275 20.8195 43.9887 20.2585 43.711C19.7031 43.4333 19.2696 43.048 18.958 42.555C18.6463 42.0563 18.4905 41.4755 18.4905 40.8125C18.4905 40.1495 18.6463 39.5715 18.958 39.0785C19.2696 38.5798 19.7031 38.1917 20.2585 37.914C20.8195 37.6363 21.4711 37.4975 22.2135 37.4975C22.9558 37.4975 23.6046 37.6363 24.16 37.914C24.721 38.1917 25.1573 38.5798 25.469 39.0785C25.7806 39.5715 25.9365 40.1495 25.9365 40.8125C25.9365 41.4755 25.7806 42.0563 25.469 42.555C25.1573 43.048 24.721 43.4333 24.16 43.711C23.6046 43.9887 22.9558 44.1275 22.2135 44.1275ZM22.2135 42.844C22.6781 42.844 23.0776 42.7618 23.412 42.5975C23.752 42.4332 24.0126 42.198 24.194 41.892C24.381 41.586 24.4745 41.2262 24.4745 40.8125C24.4745 40.3988 24.381 40.039 24.194 39.733C24.0126 39.427 23.752 39.1918 23.412 39.0275C23.0776 38.8632 22.6781 38.781 22.2135 38.781C21.7545 38.781 21.355 38.8632 21.015 39.0275C20.675 39.1918 20.4115 39.427 20.2245 39.733C20.0431 40.039 19.9525 40.3988 19.9525 40.8125C19.9525 41.2262 20.0431 41.586 20.2245 41.892C20.4115 42.198 20.675 42.4332 21.015 42.5975C21.355 42.7618 21.7545 42.844 22.2135 42.844ZM28.6245 40.1155H31.5145C32.0245 40.1155 32.4495 40.1977 32.7895 40.362C33.1295 40.5207 33.3845 40.7473 33.5545 41.042C33.7245 41.331 33.8095 41.671 33.8095 42.062C33.8095 42.453 33.716 42.793 33.529 43.082C33.3477 43.371 33.0842 43.5977 32.7385 43.762C32.3985 43.9207 31.9905 44 31.5145 44H27.511L28.004 40.6595L27.511 37.625H33.2995V38.764H28.4035L28.956 38.067L29.381 40.634L28.9305 43.592L28.378 42.912H31.353C31.6647 42.912 31.9112 42.8327 32.0925 42.674C32.2795 42.5153 32.373 42.3 32.373 42.028C32.373 41.756 32.2795 41.5407 32.0925 41.382C31.9055 41.2233 31.6562 41.144 31.3445 41.144H28.6245V40.1155ZM35.5792 44V37.625H36.9902V43.269L36.5567 43.184L40.5857 37.625H42.4642V44H41.0532V38.2795L41.4867 38.3645L37.4067 44H35.5792ZM51.5241 41.4075C51.4617 41.9458 51.2719 42.4218 50.9546 42.8355C50.6429 43.2435 50.2292 43.5608 49.7136 43.7875C49.2036 44.0142 48.6199 44.1275 47.9626 44.1275C47.2372 44.1275 46.5997 43.9887 46.0501 43.711C45.5061 43.4333 45.0811 43.048 44.7751 42.555C44.4691 42.0563 44.3161 41.4755 44.3161 40.8125C44.3161 40.1495 44.4691 39.5715 44.7751 39.0785C45.0811 38.5798 45.5061 38.1917 46.0501 37.914C46.5997 37.6363 47.2372 37.4975 47.9626 37.4975C48.6199 37.4975 49.2036 37.6108 49.7136 37.8375C50.2292 38.0642 50.6429 38.3815 50.9546 38.7895C51.2719 39.1975 51.4617 39.6735 51.5241 40.2175H50.0706C50.0139 39.9172 49.8921 39.6593 49.7051 39.444C49.5181 39.223 49.2772 39.053 48.9826 38.934C48.6879 38.815 48.3451 38.7555 47.9541 38.7555C47.5064 38.7555 47.1182 38.8405 46.7896 39.0105C46.4666 39.1748 46.2172 39.4128 46.0416 39.7245C45.8659 40.0305 45.7781 40.3932 45.7781 40.8125C45.7781 41.2318 45.8659 41.5973 46.0416 41.909C46.2172 42.215 46.4666 42.453 46.7896 42.623C47.1182 42.7873 47.5064 42.8695 47.9541 42.8695C48.3451 42.8695 48.6879 42.8128 48.9826 42.6995C49.2772 42.5805 49.5181 42.4133 49.7051 42.198C49.8921 41.977 50.0139 41.7135 50.0706 41.4075H51.5241ZM55.0739 38.271H56.5104V44H55.0739V38.271ZM52.5324 37.625H59.0434V38.9H52.5324V37.625ZM60.699 44V37.625H62.11V43.269L61.6765 43.184L65.7055 37.625H67.584V44H66.173V38.2795L66.6065 38.3645L62.5265 44H60.699ZM69.7419 44V37.625H71.1529V43.269L70.7194 43.184L74.7484 37.625H76.6269V44H75.2159V38.2795L75.6494 38.3645L71.5694 44H69.7419ZM71.1359 35.738H72.2834C72.3514 35.9363 72.4562 36.0893 72.5979 36.197C72.7452 36.3047 72.9294 36.3585 73.1504 36.3585C73.3714 36.3585 73.5527 36.3047 73.6944 36.197C73.8417 36.0893 73.9465 35.9363 74.0089 35.738H75.1649C75.0515 36.2367 74.8164 36.6022 74.4594 36.8345C74.1024 37.0668 73.666 37.183 73.1504 37.183C72.6347 37.183 72.1984 37.0668 71.8414 36.8345C71.4844 36.6022 71.2492 36.2367 71.1359 35.738ZM13.9457 56V49.625H15.3822V54.827L14.9742 54.538L18.9182 49.625H20.4567L15.2462 56H13.9457ZM16.9887 52.8805L18.0257 51.954L20.5502 56H18.9012L16.9887 52.8805ZM23.0712 54.657V53.484H27.4912V54.657H23.0712ZM26.2417 49.625L29.2252 56H27.6867L25.0772 50.2115H25.5532L22.9437 56H21.4052L24.3887 49.625H26.2417ZM31.6709 52.1155H34.5609C35.0709 52.1155 35.4959 52.1977 35.8359 52.362C36.1759 52.5207 36.4309 52.7473 36.6009 53.042C36.7709 53.331 36.8559 53.671 36.8559 54.062C36.8559 54.453 36.7624 54.793 36.5754 55.082C36.3941 55.371 36.1306 55.5977 35.7849 55.762C35.4449 55.9207 35.0369 56 34.5609 56H30.5574L31.0504 52.6595L30.5574 49.625H36.3459V50.764H31.4499L32.0024 50.067L32.4274 52.634L31.9769 55.592L31.4244 54.912H34.3994C34.7111 54.912 34.9576 54.8327 35.1389 54.674C35.3259 54.5153 35.4194 54.3 35.4194 54.028C35.4194 53.756 35.3259 53.5407 35.1389 53.382C34.9519 53.2233 34.7026 53.144 34.3909 53.144H31.6709V52.1155ZM38.6256 49.625H40.0706V56H38.6256V49.625ZM42.2231 49.625H43.6681V56H42.2231V49.625ZM47.3231 49.625H48.7681V56H47.3231V49.625ZM43.0136 52.141H47.9606V53.4075H43.0136V52.141ZM56.1957 52.26V53.365H51.6312V52.26H56.1957ZM52.6002 52.8125L52.1752 55.5155L51.5462 54.8015H56.4592V56H50.7217L51.2147 52.8125L50.7217 49.625H56.4167V50.8235H51.5462L52.1752 50.1095L52.6002 52.8125ZM60.3482 50.271H61.7847V56H60.3482V50.271ZM57.8067 49.625H64.3177V50.9H57.8067V49.625Z" fill="#515151"/>
<g clip-path="url(#clip0_1177_157)">
<path d="M50.27 15.9519L50.0154 15.7429L48.1404 14.3962L47.446 13.8389H47.4228C46.9135 13.4674 45.9413 13.7925 45.0154 14.7445L44.0663 15.6965L43.1635 16.6021L42.9089 16.8575L42.8163 16.9504L40.5941 19.1795L38.5107 21.2693L37.0987 22.6857V21.2693L37.0293 19.1795L36.983 16.9504V16.8575V16.6021V15.6965L36.9367 14.7445C36.9367 13.7925 36.2885 13.4674 35.4089 13.8389H35.3857L34.1357 14.3962L30.9644 15.7429L30.5246 15.9519L28.2329 16.9272C26.7283 17.5541 25.9875 18.6919 26.5894 19.4349H26.6357C26.9366 19.8296 27.4922 20.0386 28.2098 20.0618C28.9042 20.1083 29.7376 19.969 30.5246 19.6439L32.469 18.808L32.5153 20.5262L32.5848 22.5928H32.5616L32.6311 24.8219L32.7005 26.7491L32.77 28.955C32.77 28.955 32.8163 29.0479 32.8163 29.1176C32.8163 29.1872 32.8163 29.3033 32.8163 29.373V29.4194C32.8163 29.4194 32.8857 29.5123 32.9089 29.5587C32.9552 29.6516 33.0015 29.6981 33.0709 29.7677C33.1635 29.8374 33.2329 29.907 33.3487 29.9535C33.4413 29.9767 33.5339 29.9999 33.6496 29.9999C33.7653 29.9999 33.8579 29.9999 33.9968 29.9535C34.1357 29.907 34.2978 29.8606 34.4598 29.7677C34.5755 29.6981 34.6913 29.6516 34.8302 29.5587C34.9228 29.5123 34.9922 29.4891 35.0616 29.4194L35.1079 29.373C35.1079 29.373 35.27 29.2104 35.3626 29.1176C35.432 29.0479 35.5015 29.0247 35.5709 28.955L37.77 26.7491L39.6913 24.8219L41.8904 22.616L43.9506 20.5262L45.6635 18.808L46.7747 19.6439C47.2376 19.969 47.9321 20.1083 48.6728 20.0618C49.4136 20.0386 50.1775 19.8296 50.8488 19.4581H50.895C52.2376 18.6919 52.5849 17.5541 51.7052 16.9272L50.3395 15.9519H50.27Z" fill="#515151"/>
<path d="M41.9599 13.3746C45.6405 13.3746 50.1081 10.3793 51.8905 6.68731C53.6729 2.99536 52.1451 0 48.4646 0C44.784 0 40.3164 2.99536 38.534 6.68731C36.7516 10.3793 38.2793 13.3746 41.9599 13.3746ZM42.6312 6.68731C43.3257 5.24768 45.0386 4.08669 46.4738 4.08669C47.909 4.08669 48.4877 5.24768 47.7933 6.68731C47.0988 8.12694 45.3858 9.28793 43.9507 9.28793C42.5155 9.28793 41.9368 8.12694 42.6312 6.68731Z" fill="#515151"/>
</g>
<defs>
<clipPath id="clip0_1177_157">
<rect width="26.2501" height="30" fill="white" transform="translate(26.38)"/>
</clipPath>
</defs>
</svg>
